<svg viewBox="0 0 1023 1051.511" xmlns="http://www.w3.org/2000/svg"><path d="M234.477 1045.333c-66.34-.125-128.938-16.032-184.275-44.166l2.324 1.072-7.23-3.592-3.543-7.23C15.467 939.064.077 877.334.077 812.01c0-111.788 45.07-213.05 118.027-286.605l-.027.028L245.443 397.11c35.806-35.905 85.324-58.12 140.03-58.12s104.224 22.215 140.026 58.115l123.06 123.06c35.89 35.804 58.095 85.313 58.095 140.007s-22.205 104.203-58.09 140.003L522.63 926.108c-73.267 73.65-174.69 119.228-286.757 119.228-.49 0-.98 0-1.47-.003h.075zm-153.222-82.31c44.866 21.646 97.55 34.333 153.19 34.428h.032c.297.002.65.002 1 .002 98.95 0 188.497-40.273 253.138-105.323L614.562 766.18c27.2-27.134 44.028-64.655 44.028-106.106s-16.828-78.972-44.025-106.103l-123.06-123.06c-27.133-27.2-64.654-44.027-106.105-44.027s-78.972 16.828-106.103 44.025l-.003.004L151.976 559.14C87.626 624.02 47.86 713.368 47.86 812.003c0 54.803 12.276 106.74 34.228 153.207l-.93-2.187zm334.598 34.81L46.206 628.188l33.9-33.9 369.647 369.647zM538.91 874.78L169.263 505.13l33.9-33.9L572.81 840.88zm272.974-304.432l-241.42-96.77-96.77-241.42L680.45 21.477l27.1 62.247 75.797 177.163 239.41 102.706zm-204.79-133.4L800.44 514.47l137.852-134.98-191.527-82.116-81.974-191.527-134.978 137.517z"/></svg>