<svg xmlns="http://www.w3.org/2000/svg" style="display: none;">
  <symbol id="bomb-thin" viewBox="0 0 1023 1051.511">
    <path d="M234.477 1045.333c-66.34-.125-128.938-16.032-184.275-44.166l2.324 1.072-7.23-3.592-3.543-7.23C15.467 939.064.077 877.334.077 812.01c0-111.788 45.07-213.05 118.027-286.605l-.027.028L245.443 397.11c35.806-35.905 85.324-58.12 140.03-58.12s104.224 22.215 140.026 58.115l123.06 123.06c35.89 35.804 58.095 85.313 58.095 140.007s-22.205 104.203-58.09 140.003L522.63 926.108c-73.267 73.65-174.69 119.228-286.757 119.228-.49 0-.98 0-1.47-.003h.075zm-153.222-82.31c44.866 21.646 97.55 34.333 153.19 34.428h.032c.297.002.65.002 1 .002 98.95 0 188.497-40.273 253.138-105.323L614.562 766.18c27.2-27.134 44.028-64.655 44.028-106.106s-16.828-78.972-44.025-106.103l-123.06-123.06c-27.133-27.2-64.654-44.027-106.105-44.027s-78.972 16.828-106.103 44.025l-.003.004L151.976 559.14C87.626 624.02 47.86 713.368 47.86 812.003c0 54.803 12.276 106.74 34.228 153.207l-.93-2.187zm334.598 34.81L46.206 628.188l33.9-33.9 369.647 369.647zM538.91 874.78L169.263 505.13l33.9-33.9L572.81 840.88zm272.974-304.432l-241.42-96.77-96.77-241.42L680.45 21.477l27.1 62.247 75.797 177.163 239.41 102.706zm-204.79-133.4L800.44 514.47l137.852-134.98-191.527-82.116-81.974-191.527-134.978 137.517z"/>
  </symbol>
  
  <symbol id="explosion" viewBox="0 0 400 300">
    <path d="m217.61 194.72s13.89.56 19.71 0 13.32-1.88 17.45-.94 11.27 1.61 15.77.43a82.78 82.78 0 0 1 14.08-2.12c4.69-.37 9.95-2.63 15-2.44s8.63-1.5 11.45-2.06 10.51-1.32 10.51-1.32l-6-1.87-.19-2.15s9.39.64 8.64 4-15.58 5.26-20.09 6.39-6-1.13-10.13-.38-15.31 5.2-20.28 3.75-9.76 3.38-16.51 1.88-6.95-1.88-12.39-.94-23.84 2.28-29.47 1.23 2.45-3.46 2.45-3.46z" fill="#231f20"/><path d="m221.68 199.09a40.67 40.67 0 0 1 -6.6-.39c-1.1-.21-2.36-.56-2.41-1.47-.07-1.32 3-2.44 4.79-3h.17c.14 0 13.92.56 19.64 0 1.33-.13 2.75-.29 4.19-.47 5-.59 10.16-1.2 13.42-.46 3.7.84 10.89 1.66 15.53.44a84 84 0 0 1 14.17-2.14 41.71 41.71 0 0 0 6.1-1.13 33.9 33.9 0 0 1 9-1.31 26 26 0 0 0 8.72-1.37c.93-.27 1.8-.52 2.62-.68 1.83-.37 5.63-.81 8.14-1.07l-3.69-1.16a.51.51 0 0 1 -.35-.43l-.19-2.14a.5.5 0 0 1 .15-.4.49.49 0 0 1 .39-.15c.71.05 7 .54 8.69 2.84a2.15 2.15 0 0 1 .4 1.79c-.61 2.72-7.68 4.28-16.17 5.89-1.76.33-3.29.62-4.29.87a10.81 10.81 0 0 1 -5.7-.1 10 10 0 0 0 -4.46-.27c-1.16.21-2.89.72-4.9 1.31-5.31 1.56-11.92 3.51-15.6 2.43-2.23-.64-4.41.05-6.93.84-2.76.88-5.89 1.86-9.56 1.05l-2.36-.54c-4.52-1-5.21-1.19-9.84-.39a184.62 184.62 0 0 1 -23.07 1.61zm-8-1.9a3.37 3.37 0 0 0 1.59.52c5.59 1 24.08-.33 29.29-1.23 4.83-.83 5.65-.64 10.23.41l2.35.53c3.41.76 6.28-.15 9.05-1 2.57-.81 5-1.57 7.5-.85 3.41 1 10.14-1 15.05-2.43 2-.6 3.79-1.11 5-1.33a10.94 10.94 0 0 1 4.86.27 9.86 9.86 0 0 0 5.24.11c1-.26 2.57-.55 4.35-.89 5.19-1 14.86-2.82 15.37-5.11a1.13 1.13 0 0 0 -.22-1c-1.11-1.48-5.27-2.18-7.38-2.39l.11 1.22 5.69 1.78a.5.5 0 0 1 -.1 1c-.08 0-7.71.76-10.47 1.31-.77.15-1.62.4-2.53.66a27.26 27.26 0 0 1 -9 1.41 33.26 33.26 0 0 0 -8.71 1.28 43 43 0 0 1 -6.25 1.16 82.46 82.46 0 0 0 -14 2.11c-4.82 1.26-12.21.43-16-.43-3.1-.7-8.17-.1-13.08.48-1.45.17-2.88.34-4.21.47-5.55.53-18.52.05-19.7 0-2 .62-3.9 1.55-4 2z" fill="#231f20"/><path d="m171.24 192.59s-9.57 2.63-16 2.26-12.58-.49-16.52 0-17.64-1.54-22.15-2.29-10.32-3.53-15-3.17-13.52 0-16-1.14 2.06-3 2.06-3-5.58-.09-5.23 1.88 11 4.51 18.94 5.35 11 1.27 17.17 3.24 26.61 2.62 33.93 1.94 12.67-1.94 17.6-1.1a92.2 92.2 0 0 0 11.12 1l-11.12-6" fill="#231f20"/><path d="m144.66 198.45c-9.22 0-21.61-.77-26.22-2.24-6.07-1.93-9.14-2.36-17.08-3.21-6.52-.7-18.9-3.11-19.37-5.76a1.38 1.38 0 0 1 .32-1.18c1.13-1.32 5-1.3 5.41-1.29a.5.5 0 0 1 .19 1c-1.29.53-2.48 1.37-2.48 1.74 0 .07.13.2.43.34 2.2 1 10.71 1.48 15.71 1.1 3.05-.23 6.48.8 9.8 1.79a43.58 43.58 0 0 0 5.33 1.39c4.84.81 18.24 2.79 22 2.29 3.52-.47 9.11-.49 16.62 0 5.2.31 12.68-1.45 15-2l-.48-.26a.51.51 0 0 1 -.2-.68.49.49 0 0 1 .67-.2l11.13 6a.5.5 0 0 1 .24.57.5.5 0 0 1 -.49.37 92.78 92.78 0 0 1 -11.2-1c-3.43-.59-7-.14-11.55.43-1.86.23-3.79.47-5.91.67s-4.72.13-7.87.13zm-56.78-9.07a81.06 81.06 0 0 0 13.59 2.62c8 .86 11.12 1.3 17.27 3.26 6 1.9 26.23 2.62 33.73 1.92 2.11-.19 4-.43 5.89-.67 4.44-.55 8.27-1 11.84-.42a83.85 83.85 0 0 0 8.88.9l-7.5-4a.56.56 0 0 1 -.2.12c-.4.1-9.73 2.65-16.12 2.27-7.45-.44-13-.43-16.42 0-4.7.62-22.12-2.26-22.3-2.29a48.68 48.68 0 0 1 -5.46-1.42c-3.23-1-6.57-2-9.44-1.75a68.76 68.76 0 0 1 -13.76-.54zm-2.34-3.49a4.58 4.58 0 0 0 -2.47.82.38.38 0 0 0 -.09.35c.06.35.72.78 1.82 1.25a1.13 1.13 0 0 1 -.37-.85 2.3 2.3 0 0 1 1.11-1.57z" fill="#231f20"/><path d="m247.26 164.09c-.2.66-.41 1.33-.64 2a13.29 13.29 0 0 1 -2.82 5 14.76 14.76 0 0 1 -4.73 3c-1.29.57-2.6 1.1-3.92 1.58a57.46 57.46 0 0 1 -5.73 1.77c1.89 2.59 1 6.38-1 8.88a16.42 16.42 0 0 1 -2.93 2.78c-1.46 1.13-3 2.13-4.53 3.23a2.1 2.1 0 0 0 -1 1.32c-.07.66.47 1.21.94 1.68 2.81 2.84 4.65 6.89 4 10.84s-4.1 7.52-8.1 7.44c.77 10.13 1.81 20.31 3.27 30.36a25.77 25.77 0 0 0 12.16 18.8 6.24 6.24 0 0 1 2.1 1.89c-18.52 0-37 .37-55.61.37-2.83.1-5.67.23-8.5.32 3.6-.6 5.66-4.33 7.19-7.65q3.33-7.14 6.64-14.28a6 6 0 0 0 .71-2.41 7.1 7.1 0 0 0 -.65-2.36c-2.64-7.16.65-15 3.89-21.91-4.93-2.23-10-4.59-13.47-8.78s-4.58-10.77-1.11-14.92c-5.43.06-10.26-4.52-11.28-9.75a9.92 9.92 0 0 1 0-4.27 21.12 21.12 0 0 1 -2.5-.33 19.22 19.22 0 0 1 -11.4-6.61 16 16 0 0 1 -2.44-4.32 14.67 14.67 0 0 1 0-10.73l2.69-8.07c2.17-6 6.8-10.86 12.17-14.28s11.5-5.49 17.66-7.11c11.65-3.09 23.89-4.7 35.79-2.75s23.46 7.72 30.75 17.32a20.93 20.93 0 0 1 4.2 8.64c.94 4.46-.46 8.99-1.8 13.31z" fill="#68e1fd"/><path d="m170.25 265.87a.5.5 0 0 1 -.5-.45.5.5 0 0 1 .42-.54c3.26-.55 5.2-3.87 6.82-7.37q3.33-7.14 6.64-14.28a5.69 5.69 0 0 0 .66-2.2 5.48 5.48 0 0 0 -.49-1.85l-.13-.33c-2.6-7.07.34-14.65 3.69-21.84-4.61-2.09-9.73-4.5-13.19-8.71-3.19-3.91-4.74-10.25-1.69-14.78a12.59 12.59 0 0 1 -10.8-10.11 10.35 10.35 0 0 1 -.07-3.92 19.08 19.08 0 0 1 -2-.29 19.62 19.62 0 0 1 -11.7-6.79 16.48 16.48 0 0 1 -2.51-4.41 15.23 15.23 0 0 1 0-11.1l2.68-8c2-5.59 6.42-10.75 12.37-14.54s12.63-5.81 17.8-7.17c13.58-3.61 25.36-4.51 36-2.76 12.89 2.1 24.22 8.48 31.07 17.51a21.25 21.25 0 0 1 4.29 8.85c.85 4.67-.61 9.38-1.89 13.53-.2.66-.42 1.34-.65 2a13.84 13.84 0 0 1 -2.93 5.24 15.35 15.35 0 0 1 -4.89 3.09c-1.32.58-2.65 1.12-4 1.59-1.67.61-3.39 1.15-5.11 1.61 1.53 2.78.52 6.48-1.4 8.88a16.73 16.73 0 0 1 -3 2.87c-.83.65-1.72 1.26-2.58 1.85-.66.46-1.31.91-2 1.38-.37.28-.77.6-.81 1s.42.9.79 1.28c3.21 3.24 4.77 7.45 4.18 11.27-.65 4.21-4.19 7.62-8 7.85.83 10.86 1.89 20.61 3.22 29.8a25.29 25.29 0 0 0 11.92 18.44 6.81 6.81 0 0 1 2.26 2 .49.49 0 0 1 0 .52.48.48 0 0 1 -.44.27c-9.25 0-18.66.09-27.76.18s-18.56.19-27.85.19l-3.56.14-4.92.18zm3.2-73.31a.49.49 0 0 1 .45.29.47.47 0 0 1 -.07.53c-3.34 4-2.05 10.4 1.12 14.28 3.42 4.18 8.66 6.55 13.29 8.64a.53.53 0 0 1 .26.29.46.46 0 0 1 0 .38c-3.34 7.14-6.4 14.68-3.87 21.53l.12.32a6.26 6.26 0 0 1 .56 2.2 6.48 6.48 0 0 1 -.75 2.63l-6.65 14.28c-1.26 2.74-2.73 5.38-4.87 6.84l2.13-.08 3.58-.14c9.31 0 18.74-.09 27.86-.19 8.75-.08 17.79-.17 26.7-.18a6.29 6.29 0 0 0 -1.28-1 26.23 26.23 0 0 1 -12.4-19.16c-1.36-9.36-2.44-19.3-3.28-30.39a.49.49 0 0 1 .14-.38.48.48 0 0 1 .37-.16c3.61.1 7-3.08 7.6-7 .54-3.5-.92-7.39-3.91-10.41a2.73 2.73 0 0 1 -1.08-2.08 2.59 2.59 0 0 1 1.21-1.67c.65-.48 1.31-.94 2-1.4.85-.59 1.73-1.19 2.54-1.83a15.82 15.82 0 0 0 2.78-2.7c1.82-2.28 2.75-5.86 1-8.28a.47.47 0 0 1 -.07-.46.5.5 0 0 1 .35-.31c1.91-.49 3.82-1.08 5.68-1.76 1.28-.46 2.58-1 3.89-1.57a14.13 14.13 0 0 0 4.57-2.87 13 13 0 0 0 2.71-4.86c.23-.66.43-1.32.63-2 1.26-4 2.68-8.62 1.87-13.05a20.23 20.23 0 0 0 -4.11-8.43c-6.7-8.82-17.79-15.06-30.43-17.13-10.5-1.72-22.14-.82-35.58 2.74-5.11 1.35-11.72 3.36-17.52 7.05s-10 8.66-12 14l-2.69 8.06a14.27 14.27 0 0 0 0 10.39 15.33 15.33 0 0 0 2.36 4.19 18.61 18.61 0 0 0 11.1 6.43 20.81 20.81 0 0 0 2.45.32.47.47 0 0 1 .36.2.51.51 0 0 1 .09.41 9.42 9.42 0 0 0 0 4.06c1 5.18 5.79 9.35 10.69 9.35z" fill="#231f20"/><path d="m163.61 166.12c2.86 3.38 8 5.16 11.92 3.22-2.43 2.86-5 6.85-3.05 10.07 1 1.66 2.91 2.49 4.55 3.51s3.25 2.7 3 4.61c-.2 1.3-1.2 2.3-1.71 3.51-1.3 3.07 1 6.56 3.69 8.47s6 3 8.47 5.27a15.3 15.3 0 0 1 3.57 5.48c2.7 6.58 2.42 14.07.59 20.93s-5.11 13.24-8.37 19.55l-6.05 11.71q14.63.6 29.25.54l-1.84-1.36c-1.28-12.95 6.63-25.85 3.83-38.56-1.35-6.1-5.14-11.83-4.51-18.06a5.6 5.6 0 0 1 .87-2.71c1.36-1.88 4.17-2 5.91-3.52a4.66 4.66 0 0 0 .38-6.37c-.72-.81-1.76-1.4-2.12-2.43-.48-1.36.53-2.84 1.74-3.63s2.67-1.18 3.85-2a6.09 6.09 0 0 0 1.92-7.21c-.87-1.94-2.82-4-1.68-5.82a4.58 4.58 0 0 1 2.7-1.53 23 23 0 0 0 13-9.9 17.36 17.36 0 0 0 1-16.05 22 22 0 0 0 -6.3-7.38 28.93 28.93 0 0 0 -14.17-6.46c-10.05-1.28-19.57 4.17-29.41 6.57-6.14 1.5-12.57 1.57-16.42 7-3.29 4.67-8.07 12.83-6.53 18.87a9.1 9.1 0 0 0 1.92 3.68z" fill="#68e1fd"/><path d="m206.6 263.49c-8.78 0-17.66-.18-26.43-.54a.49.49 0 0 1 -.41-.25.48.48 0 0 1 0-.48l6-11.71c3.2-6.2 6.51-12.6 8.34-19.45 1.41-5.32 2.46-13.21-.57-20.61a14.73 14.73 0 0 0 -3.45-5.31 21.68 21.68 0 0 0 -4.86-3.14 33.68 33.68 0 0 1 -3.56-2.08c-2.86-2-5.29-5.69-3.86-9.08a10 10 0 0 1 .77-1.4 5.4 5.4 0 0 0 .9-2c.3-2-2-3.67-2.73-4.11l-1-.62a9.54 9.54 0 0 1 -3.69-3.06c-1.46-2.42-.79-5.53 2-9.26-4 1-8.4-1.12-10.81-4a9.63 9.63 0 0 1 -2-3.83c-1.61-6.33 3.45-14.8 6.61-19.28s8-5.47 13-6.46c1.21-.24 2.47-.49 3.69-.78 3.06-.75 6.15-1.82 9.14-2.85 6.61-2.28 13.44-4.63 20.45-3.74a29.48 29.48 0 0 1 14.4 6.55 22.16 22.16 0 0 1 6.44 7.55 17.74 17.74 0 0 1 -1 16.52 23.62 23.62 0 0 1 -13.32 10.13h-.1a4.07 4.07 0 0 0 -2.33 1.29c-.69 1.09.08 2.41.89 3.81.29.51.59 1 .83 1.54a6.59 6.59 0 0 1 -2.09 7.81 11.3 11.3 0 0 1 -2.13 1.15 12.25 12.25 0 0 0 -1.73.9c-1.06.69-1.93 1.95-1.55 3a3.86 3.86 0 0 0 1.21 1.47 10.16 10.16 0 0 1 .82.78 5.17 5.17 0 0 1 -.43 7.08 9.73 9.73 0 0 1 -2.84 1.56 6.45 6.45 0 0 0 -3 1.89 5 5 0 0 0 -.78 2.46c-.39 3.87 1 7.51 2.4 11.36a49.46 49.46 0 0 1 2.1 6.55c1.53 6.92-.1 14-1.67 20.82-1.33 5.77-2.7 11.73-2.17 17.57l1.66 1.22a.52.52 0 0 1 .18.56.51.51 0 0 1 -.47.35zm-25.6-1.49c8.94.36 18 .53 26.93.51l-.63-.46a.52.52 0 0 1 -.2-.35c-.6-6.08.81-12.19 2.17-18.11 1.55-6.73 3.15-13.68 1.67-20.39a49.27 49.27 0 0 0 -2.06-6.41c-1.41-3.79-2.87-7.7-2.46-11.81a6 6 0 0 1 1-3 7.28 7.28 0 0 1 3.42-2.23 8.71 8.71 0 0 0 2.56-1.38 4.17 4.17 0 0 0 .34-5.66 8 8 0 0 0 -.73-.7 4.71 4.71 0 0 1 -1.49-1.89c-.58-1.65.6-3.35 1.94-4.22a14.44 14.44 0 0 1 1.87-1 10.66 10.66 0 0 0 1.95-1.05 5.55 5.55 0 0 0 1.77-6.59c-.22-.47-.49-.94-.78-1.45-.89-1.52-1.89-3.25-.87-4.84a4.83 4.83 0 0 1 2.87-1.72h.1a22.59 22.59 0 0 0 12.76-9.68 16.74 16.74 0 0 0 1-15.57 21.35 21.35 0 0 0 -6.16-7.21 28.56 28.56 0 0 0 -13.97-6.29c-6.78-.86-13.5 1.46-20 3.7-3 1-6.13 2.11-9.23 2.87-1.25.3-2.51.55-3.74.79-4.85.95-9.43 1.84-12.39 6s-8 12.53-6.46 18.46a8.6 8.6 0 0 0 1.82 3.48c2.55 3 7.48 5 11.32 3.09a.48.48 0 0 1 .61.14.5.5 0 0 1 0 .63c-3.38 4-4.39 7.18-3 9.49a8.7 8.7 0 0 0 3.33 2.72c.36.21.71.41 1.06.63 1.08.68 3.57 2.54 3.19 5.11a6.36 6.36 0 0 1 -1 2.36 9.39 9.39 0 0 0 -.7 1.26c-1.16 2.75.89 6 3.51 7.87a31.45 31.45 0 0 0 3.46 2 23.29 23.29 0 0 1 5.08 3.3 15.66 15.66 0 0 1 3.68 5.66c3.14 7.66 2.07 15.78.61 21.25-1.85 7-5.18 13.41-8.41 19.65z" fill="#231f20"/><path d="m172.77 159.06c.5 2.4 2.3 4.28 4 6l8.84 8.94a7.22 7.22 0 0 1 2.21 3.32c.43 2-.95 4-1.46 6-.8 3.11.52 6.4 2.36 9s4.2 4.89 5.91 7.61c3.24 5.13 3.88 11.46 3.93 17.53a108.77 108.77 0 0 1 -7.18 39.69 66.26 66.26 0 0 0 10.29-1.57l1.87-21.34c.61-6.93 1.18-14.13-1.3-20.63-.9-2.38-2.2-4.6-3-7s-1.06-5.18.1-7.45c1.5-2.92 5.23-4.92 5-8.21s-4.3-5.71-3.43-8.85a6.23 6.23 0 0 1 2-2.66l4.87-4.59c1.87-1.76 3.83-3.68 4.35-6.19.44-2.17-.28-4.38-.69-6.55s-.42-4.69 1.11-6.28c1.21-1.26 3.09-1.65 4.36-2.83 2.14-2 1.75-5.73-.15-7.95s-4.84-3.26-7.7-3.88c-4.26-.93-9.34-.92-12.27 2.31-1.48 1.63-2.79 4.18-5 3.83-1.11-.18-1.91-1.11-2.8-1.81-7.44-5.88-17.74 6.41-16.22 13.56z" fill="#68e1fd"/><path d="m191.41 257.71a.51.51 0 0 1 -.4-.2.49.49 0 0 1 -.01-.51 109 109 0 0 0 7.14-39.51c0-5.26-.52-12-3.85-17.27a40.09 40.09 0 0 0 -3.19-4.15c-.92-1.1-1.88-2.23-2.71-3.44-1.62-2.32-3.36-5.85-2.44-9.45a17.08 17.08 0 0 1 .71-2 6.6 6.6 0 0 0 .75-3.74 6.79 6.79 0 0 0 -2.08-3.07l-8.84-8.95c-1.61-1.63-3.61-3.65-4.16-6.27-.95-4.48 2.52-11.07 7.42-14.12 3.45-2.14 6.88-2.1 9.67.1.22.17.42.35.63.53a4.27 4.27 0 0 0 1.94 1.18c1.39.22 2.43-1.09 3.52-2.48.33-.41.65-.83 1-1.19 3.45-3.81 9.47-3.19 12.75-2.47 2.39.52 5.81 1.5 8 4 2 2.35 2.52 6.38.11 8.64a9.51 9.51 0 0 1 -2.22 1.42 8 8 0 0 0 -2.13 1.39c-1.15 1.21-1.48 3.17-1 5.84.09.45.18.9.28 1.34a13.17 13.17 0 0 1 .41 5.41c-.57 2.75-2.74 4.81-4.49 6.45l-4.88 4.59a5.8 5.8 0 0 0 -1.82 2.44c-.41 1.49.54 2.89 1.54 4.38a8.74 8.74 0 0 1 1.91 4.31c.12 2.25-1.39 3.92-2.86 5.54a14.21 14.21 0 0 0 -2.24 2.92c-1.21 2.36-.71 5.14-.07 7.06a35.57 35.57 0 0 0 1.63 3.87c.47 1 1 2.06 1.37 3.13 2.57 6.74 1.91 14.23 1.33 20.85l-1.88 21.35a.5.5 0 0 1 -.38.44 67.16 67.16 0 0 1 -10.36 1.58zm-18.16-98.71c.5 2.33 2.38 4.24 3.9 5.78l8.84 8.94a7.6 7.6 0 0 1 2.35 3.57 7.47 7.47 0 0 1 -.8 4.32 15.22 15.22 0 0 0 -.67 1.89c-.83 3.23.79 6.48 2.29 8.63.81 1.17 1.75 2.29 2.66 3.37a38.34 38.34 0 0 1 3.26 4.26c3.47 5.5 4 12.4 4 17.79a108.48 108.48 0 0 1 -6.93 39.14 66 66 0 0 0 9.07-1.41l1.84-21c.58-6.51 1.22-13.88-1.26-20.4-.4-1-.88-2.06-1.35-3.06a37.91 37.91 0 0 1 -1.67-4c-.7-2.1-1.24-5.16.13-7.83a15.13 15.13 0 0 1 2.39-3.15c1.39-1.53 2.7-3 2.6-4.81a8.08 8.08 0 0 0 -1.74-3.8c-1.09-1.61-2.21-3.27-1.67-5.21a6.53 6.53 0 0 1 2.1-2.89l4.87-4.59c2-1.91 3.73-3.67 4.2-5.94a12.11 12.11 0 0 0 -.41-5c-.1-.45-.19-.91-.28-1.36-.57-3-.15-5.27 1.24-6.72a8.67 8.67 0 0 1 2.39-1.59 8.44 8.44 0 0 0 2-1.26c2-1.84 1.48-5.3-.19-7.26-2-2.31-5.18-3.23-7.42-3.72-3.07-.66-8.68-1.27-11.8 2.17-.32.35-.63.74-.95 1.14-1.16 1.49-2.48 3.17-4.46 2.84a4.83 4.83 0 0 1 -2.43-1.41l-.6-.5c-3.28-2.59-6.75-1.13-8.52 0-4.58 2.85-7.84 8.95-7 13.06z" fill="#231f20"/><path d="m247.26 164.09c-.2.66-.41 1.33-.64 2a37 37 0 0 1 -11.83-.1 76.2 76.2 0 0 1 -11.37-2.53 10.4 10.4 0 0 0 -3.55-.68 10.77 10.77 0 0 0 -3.48 1 61.33 61.33 0 0 1 -51.84-2.35c-3.48 2.31-7 4.64-11 5.83a16.5 16.5 0 0 1 -7.64.48 14.67 14.67 0 0 1 0-10.73l2.69-8.07c2.17-6 6.8-10.86 12.17-14.28s11.5-5.49 17.66-7.11c11.65-3.09 23.89-4.7 35.79-2.75s23.46 7.72 30.75 17.32a20.93 20.93 0 0 1 4.2 8.64c.83 4.48-.57 9.01-1.91 13.33z" fill="#231f20"/><path d="m193 169a61.12 61.12 0 0 1 -28.42-6.95c-3.23 2.14-6.88 4.53-10.93 5.73a16.91 16.91 0 0 1 -7.87.49.49.49 0 0 1 -.38-.31 15.23 15.23 0 0 1 0-11.1l2.68-8c2-5.59 6.42-10.75 12.37-14.54s12.63-5.81 17.8-7.17c13.58-3.61 25.36-4.51 36-2.76 12.89 2.1 24.22 8.48 31.07 17.51a21.25 21.25 0 0 1 4.29 8.85c.85 4.67-.61 9.38-1.89 13.53-.2.66-.42 1.34-.65 2a.49.49 0 0 1 -.38.33 37.12 37.12 0 0 1 -12-.09 77.42 77.42 0 0 1 -11.45-2.55h-.1a10 10 0 0 0 -3.28-.63 9.61 9.61 0 0 0 -3.1.93l-.21.08a60.83 60.83 0 0 1 -23.55 4.65zm-28.45-8a.46.46 0 0 1 .23.06 60.53 60.53 0 0 0 51.42 2.33l.2-.09a10.66 10.66 0 0 1 3.44-1 10.53 10.53 0 0 1 3.63.67h.1a76.27 76.27 0 0 0 11.29 2.52 36.76 36.76 0 0 0 11.38.15c.19-.56.37-1.13.54-1.69 1.26-4 2.68-8.62 1.87-13.05a20.23 20.23 0 0 0 -4.11-8.43c-6.7-8.82-17.79-15.06-30.43-17.13-10.5-1.72-22.14-.82-35.58 2.74-5.11 1.35-11.72 3.36-17.52 7.05s-10 8.66-12 14l-2.69 8.06a14.24 14.24 0 0 0 -.11 10.13 16.1 16.1 0 0 0 7.13-.52c4-1.19 7.67-3.62 10.9-5.77a.57.57 0 0 1 .31-.03z" fill="#231f20"/><path d="m129.15 39.46c-9.11 2.9-16.83 11.27-16.91 20.84a16.21 16.21 0 0 0 -17 21.44c-7.04 1.75-14.24 5.16-17.73 11.55s-1.13 16.09 5.87 18.06a18.2 18.2 0 0 0 15.56 28c3.36 13.25 17.76 22.66 31.24 20.42 9.3 8.4 26.12 5.86 32.51-4.92 1.1 4.46 5.9 6.88 10.33 8.06 14.3 3.81 27.11-.06 39.58-7 8 10.95 28.71 7.76 39.48 3.6 10-3.87 18.57-13.34 18.27-24.08 6.39 4.27 15 5.66 21.91 2.31s11.26-12 8.66-19.19a18.62 18.62 0 0 0 .82-35.35c-.88-7.61-2.5-15.53-7.41-21.42s-14-8.93-20.5-4.85a24 24 0 0 0 -41.74-7.67c-6.66-10.36-22.72-13-32.37-5.37.53-3.82-3.21-6.83-6.74-8.37a36.85 36.85 0 0 0 -35.45 3.7 5.28 5.28 0 0 0 -1.53 2.47c-8.45-3.39-18-5.04-26.85-2.23z" fill="#68e1fd"/><path d="m143.89 165.28a20.85 20.85 0 0 1 -13.87-5c-13.6 2.13-27.88-7.16-31.46-20.45a18.7 18.7 0 0 1 -15.94-28.22 10.5 10.5 0 0 1 -6.06-6 15 15 0 0 1 .51-12.54c2.94-5.42 9-9.45 17.55-11.66a16.72 16.72 0 0 1 17.13-21.64c.35-9 7.52-17.67 17.25-20.76 7.78-2.47 17-1.76 26.71 2a4.88 4.88 0 0 1 1.53-2.2 37.33 37.33 0 0 1 35.94-3.75c3.42 1.49 6.89 4.27 7.08 7.8a23.69 23.69 0 0 1 31.87 5.56 24.47 24.47 0 0 1 42 7.76c6.85-3.82 15.94-.33 20.6 5.28 5.06 6.07 6.64 14.19 7.5 21.38a19.12 19.12 0 0 1 -.65 36c2.22 7.06-1.85 15.8-9.08 19.31-6.41 3.1-14.8 2.36-21.63-1.84-.19 11.36-9.65 20.17-18.59 23.63a59.56 59.56 0 0 1 -21 3.9c-8.66-.06-15.16-2.59-18.84-7.32-14.72 8.07-26.94 10.17-39.57 6.81-3.2-.86-8.58-2.92-10.35-7.38a21.66 21.66 0 0 1 -14.94 9 24.68 24.68 0 0 1 -3.69.33zm-13.71-6a.46.46 0 0 1 .33.13 21.74 21.74 0 0 0 31.76-4.8.46.46 0 0 1 .5-.24.49.49 0 0 1 .41.37c1.15 4.69 6.74 6.84 10 7.7 12.47 3.32 24.56 1.19 39.21-6.92a.49.49 0 0 1 .64.14c7.67 10.48 27.93 7.66 38.9 3.42 12.65-4.88 18.17-15.65 18-23.59a.51.51 0 0 1 .25-.46.49.49 0 0 1 .52 0c6.68 4.44 15.08 5.33 21.42 2.27 7-3.37 10.82-11.88 8.41-18.57a.48.48 0 0 1 0-.39.5.5 0 0 1 .3-.25 18.12 18.12 0 0 0 .8-34.4.51.51 0 0 1 -.33-.42c-.83-7.12-2.34-15.21-7.31-21.16-4.52-5.44-13.4-8.8-19.85-4.75a.49.49 0 0 1 -.44 0 .48.48 0 0 1 -.3-.32 23.48 23.48 0 0 0 -40.87-7.5.5.5 0 0 1 -.81 0 22.58 22.58 0 0 0 -31.72-5.23.48.48 0 0 1 -.56 0 .5.5 0 0 1 -.24-.5c.48-3.5-3-6.34-6.45-7.84a36.29 36.29 0 0 0 -35 3.65 4.43 4.43 0 0 0 -1.36 2.2.5.5 0 0 1 -.26.29.55.55 0 0 1 -.4 0c-6.73-2.71-16.8-5.3-26.49-2.22-9.53 3-16.5 11.59-16.57 20.36a.48.48 0 0 1 -.17.37.47.47 0 0 1 -.38.12 15.72 15.72 0 0 0 -16.38 20.84.51.51 0 0 1 0 .4.45.45 0 0 1 -.32.25c-5.99 1.47-13.85 4.63-17.42 11.3a13.94 13.94 0 0 0 -.47 11.67 9.4 9.4 0 0 0 6 5.67.49.49 0 0 1 .33.3.48.48 0 0 1 0 .45 17.71 17.71 0 0 0 15.14 27.23.5.5 0 0 1 .49.38c3.31 13.08 17.35 22.26 30.67 20.05z" fill="#231f20"/><path d="m229.22 177.93a1.9 1.9 0 0 1 .9.72c1.43 2.1-.37 6-1.7 7.69a16.42 16.42 0 0 1 -2.93 2.78c-6.47-1.48-12.86-4-19.13-2.24-1.7.48-3.36 1.28-5.12 1.21a12.71 12.71 0 0 1 -3.56-.92 38.12 38.12 0 0 0 -15.75-2c-4 .35-8.22 2.54-12.15 2.14-2.84-.29-10.92-3.56-7.85-7.68a4.85 4.85 0 0 1 3.73-1.69 27.16 27.16 0 0 1 4.21.41c4.36.51 8.74-.4 13.11-.63 8.7-.45 17.33 1.77 26 1.81a82.1 82.1 0 0 0 13.54-1.28c1.64-.25 4.9-1.11 6.7-.32z" fill="#231f20"/><path d="m225.49 189.62h-.11c-1.31-.3-2.61-.64-3.91-1-5.19-1.36-10.1-2.65-15-1.26-.45.13-.9.28-1.35.43a10.9 10.9 0 0 1 -3.93.8 11.05 11.05 0 0 1 -3.25-.79l-.45-.16a37.91 37.91 0 0 0 -15.49-1.95 29 29 0 0 0 -4.93 1.05 20.68 20.68 0 0 1 -7.31 1.09c-2.31-.24-7.47-2.22-8.7-5a3.33 3.33 0 0 1 .5-3.46 5.31 5.31 0 0 1 4.11-1.89 17.72 17.72 0 0 1 3.11.25l1.18.17a40.59 40.59 0 0 0 8.74-.27c1.4-.14 2.85-.29 4.29-.36a85.25 85.25 0 0 1 14.4.87 105.12 105.12 0 0 0 11.66.93 86.38 86.38 0 0 0 13.46-1.27l1-.18c1.84-.36 4.35-.85 6-.13a2.52 2.52 0 0 1 1.12.9c1.68 2.48-.48 6.73-1.73 8.28a16.73 16.73 0 0 1 -3 2.87.51.51 0 0 1 -.41.08zm-14.56-3.85a43.35 43.35 0 0 1 10.79 1.89c1.22.32 2.43.64 3.65.92a15.54 15.54 0 0 0 2.63-2.58c1.19-1.49 3-5.21 1.68-7.1a1.52 1.52 0 0 0 -.69-.54c-1.34-.59-3.78-.12-5.39.19-.37.07-.7.14-1 .18a86.61 86.61 0 0 1 -13.6 1.32 104 104 0 0 1 -11.76-.94 85.66 85.66 0 0 0 -14.24-.87c-1.41.08-2.85.22-4.24.37a41.85 41.85 0 0 1 -9 .26l-1.21-.16a15.36 15.36 0 0 0 -2.92-.25 4.3 4.3 0 0 0 -3.35 1.49 2.31 2.31 0 0 0 -.38 2.46c1 2.35 5.69 4.2 7.88 4.42a20.09 20.09 0 0 0 6.94-1.06 30.14 30.14 0 0 1 5.12-1.08 38.88 38.88 0 0 1 16 2l.45.16a10.35 10.35 0 0 0 3 .73 10 10 0 0 0 3.57-.75c.47-.16.93-.31 1.39-.44a17.29 17.29 0 0 1 4.68-.62z" fill="#231f20"/><path d="m87.71 185.27s10.7-3 17.46-2.81c0 0 13.7 2.42 24.78 0 0 0 13.91.41 23.09 0s8.07 1.88 20.64 1.41 15-3.09 17.84-2.53a62.1 62.1 0 0 0 17.47-.08s6.94 4.81 13.69 2 12.95 3.81 19.33 0c0 0 16.33 1.67 24.21-2 0 0 10.89 1.61 15.58 0 0 0 8.83 3 13.52 2s8.45 2.2 12 .89c2.77-1 5.56.45 8.4-.19.86-.19 1.71-.48 2.58-.63a8.29 8.29 0 0 1 4.13.37c-.66-1.23-2.23-1.59-3.61-1.81-3.58-.58-7-.39-10.57-.5-1.74 0-3.48-.13-5.21-.35-1.1-.14-2.56-.83-3.6-.83-2.82-1.51-14.08-4.32-19.52-3.57 0 0-14.83-3.57-21.78-1.5a36.09 36.09 0 0 1 -13.14 1.31s-11.63-3.19-18.77-2.81-13.51 2.62-15 1.87-7.32-1.5-12.39-.94-8.07 1.13-8.07 1.13-10.14-3.06-14.46-2.1-5.82 2.85-8.07 2.29-8.63-2.51-12.2-2.47-8.66 4.35-11.18 4.16-7.78-3.38-13.78-1.5-11.45 3.53-16 3.26-11.26-1-13.51 0-13.86 5.93-13.86 5.93z" fill="#68e1fd"/><path d="m87.71 185.77a.51.51 0 0 1 -.47-.33.51.51 0 0 1 .28-.63c.12-.05 11.66-4.89 13.87-5.92 1.94-.9 6.75-.55 11-.24 1 .08 1.91.14 2.77.19 4.53.27 10.25-1.51 15.78-3.24 4.43-1.38 8.39-.13 11.28.79a14.28 14.28 0 0 0 2.68.69c1.06.1 2.8-.83 4.64-1.79 2.22-1.16 4.51-2.36 6.51-2.37h.09c3 0 7.81 1.29 10.68 2.07l1.55.41c1.11.28 2-.13 3.4-.74a22.59 22.59 0 0 1 4.44-1.54c4.19-.94 13.39 1.71 14.59 2.07.62-.11 3.52-.62 8-1.11 5.26-.59 11.11.2 12.67 1 .61.3 2.82-.13 5.15-.58a68.55 68.55 0 0 1 9.62-1.35c7.13-.38 18.45 2.7 18.93 2.83a36.07 36.07 0 0 0 12.83-1.32c6.79-2 20.57 1.14 21.94 1.47 5.43-.7 16.46 2 19.63 3.58a8.41 8.41 0 0 1 2 .45 10.54 10.54 0 0 0 1.51.39c1.75.22 3.52.29 5.17.34 1 0 2 0 3 .05a47.93 47.93 0 0 1 7.64.46c1.63.26 3.24.69 4 2.07a.49.49 0 0 1 -.07.56.5.5 0 0 1 -.54.14 7.87 7.87 0 0 0 -3.88-.35c-.5.09-1 .22-1.5.36-.35.09-.7.19-1.05.27a12 12 0 0 1 -4.06 0 9 9 0 0 0 -4.28.17c-1.93.71-3.86.21-5.9-.32a13.11 13.11 0 0 0 -6.18-.55c-4.47.95-12.36-1.55-13.62-2-4.57 1.46-14.14.18-15.5 0-7.63 3.46-22.36 2.18-24.18 2-3.46 2-6.89 1.09-10.21.23-3.07-.8-6-1.56-9-.29-6.42 2.67-12.86-1.2-14-1.94a63 63 0 0 1 -17.46 0 8.3 8.3 0 0 0 -3.67.51 55.69 55.69 0 0 1 -14.05 2 46.37 46.37 0 0 1 -12.22-.79 30.51 30.51 0 0 0 -8.42-.62c-8.78.39-22 0-23.06 0-11 2.4-24.78 0-24.92 0-6.52-.18-17.12 2.77-17.23 2.8a.34.34 0 0 1 -.18.12zm138.65-3.72a23.26 23.26 0 0 1 5.81 1c3.3.86 6.43 1.68 9.58-.21a.48.48 0 0 1 .31-.06c.16 0 16.29 1.6 23.95-2a.57.57 0 0 1 .29 0c.1 0 10.82 1.57 15.34 0a.44.44 0 0 1 .32 0c.09 0 8.75 2.95 13.25 2a14 14 0 0 1 6.64.57c2 .5 3.67.94 5.31.34a9.82 9.82 0 0 1 4.74-.23 10.57 10.57 0 0 0 3.72 0c.34-.07.67-.16 1-.26.51-.13 1.05-.28 1.59-.37a8.62 8.62 0 0 1 2.15-.09 10.89 10.89 0 0 0 -1.62-.37 48.07 48.07 0 0 0 -7.48-.44c-1 0-2 0-3-.05-1.68 0-3.47-.12-5.26-.35a11.57 11.57 0 0 1 -1.69-.42 7.34 7.34 0 0 0 -1.85-.41.71.71 0 0 1 -.24-.06c-2.87-1.53-14-4.23-19.22-3.52a.37.37 0 0 1 -.18 0c-.15 0-14.78-3.51-21.52-1.5a36.18 36.18 0 0 1 -13.3 1.38c-.18 0-11.72-3.19-18.68-2.82a70.38 70.38 0 0 0 -9.48 1.34c-2.94.57-4.88.94-5.79.49-1.29-.64-6.86-1.47-12.11-.89-5 .56-8 1.12-8 1.12a.49.49 0 0 1 -.24 0c-.1 0-10.06-3-14.2-2.09a22.21 22.21 0 0 0 -4.25 1.48c-1.46.65-2.62 1.16-4 .8l-1.57-.41c-2.83-.77-7.55-2-10.42-2h-.26c-1.75 0-4 1.2-6 2.26s-3.83 2-5.17 1.9a14.75 14.75 0 0 1 -2.91-.74c-2.77-.88-6.55-2.08-10.69-.79-5.61 1.76-11.42 3.58-16.13 3.29l-2.78-.19c-3.91-.29-8.79-.65-10.49.15-1.2.55-4.95 2.15-8.26 3.55a54.64 54.64 0 0 1 11.62-1.45c.21 0 13.81 2.38 24.65 0h.16c.14 0 14 .4 23 0a31.65 31.65 0 0 1 8.66.64 45.35 45.35 0 0 0 12 .77 54.93 54.93 0 0 0 13.82-2 8.86 8.86 0 0 1 4.12-.53 61.88 61.88 0 0 0 17.31-.08.5.5 0 0 1 .36.08c.07 0 6.8 4.62 13.2 2a9.9 9.9 0 0 1 3.89-.83z" fill="#231f20"/><path d="m256.79 141.85c-.63 0-1.25 0-1.88-.09-1.85-.17-5.17-.86-6.56-3.49a.5.5 0 1 1 .88-.46c1.17 2.21 4.12 2.8 5.78 2.95a19.9 19.9 0 0 0 21-25.34.5.5 0 0 1 .11-.48.49.49 0 0 1 .46-.15 12.13 12.13 0 0 0 14.31-12.54.51.51 0 0 1 .48-.53.48.48 0 0 1 .52.48 13.13 13.13 0 0 1 -14.72 13.69 20.91 20.91 0 0 1 -20.35 26z" fill="#231f20"/><path d="m121.94 84.69a.49.49 0 0 1 -.49-.51c.09-5.87.68-13.41 4.42-19.6s10.44-9.79 16.5-8.94c-.68-3.59 2-7 5-9.17a27.35 27.35 0 0 1 25.26-3.26c2.21.85 3.42 2 3.69 3.43a.5.5 0 0 1 -.4.58.5.5 0 0 1 -.58-.4c-.2-1.07-1.23-2-3.06-2.68a26.35 26.35 0 0 0 -24.33 3.14c-2.74 2-5.54 5.47-4.43 8.82a.5.5 0 0 1 -.57.65c-6.84-1.4-13.21 3.35-16.23 8.35-3.61 6-4.18 13.35-4.27 19.1a.51.51 0 0 1 -.51.49z" fill="#231f20"/><path d="m122 146.54h-.09c-9.17-1.59-18.57-3.72-23.89-10.71-5-6.64-4.83-15.84-4.22-22.18.44-4.63 1.39-9.79 5-13a.5.5 0 1 1 .65.75c-3.38 3-4.27 7.9-4.7 12.34-.59 6.17-.81 15.12 4 21.47 5.11 6.71 13.92 8.71 23.27 10.33a.5.5 0 0 1 -.08 1z" fill="#231f20"/><path d="m262.59 82.43a.49.49 0 0 1 -.45-.54c.54-6.31-5.29-11.25-7.83-13.08-6.46-4.66-13.68-6.8-20.34-6-1.84.22-3 .78-3.44 1.71a.5.5 0 0 1 -.41.27.48.48 0 0 1 -.44-.21c-3.82-5.43-10.94-8.66-18.13-8.28a28.3 28.3 0 0 0 -18.38 8.95.49.49 0 0 1 -.7 0 .5.5 0 0 1 0-.71c5.28-5.5 12.23-8.88 19.05-9.25a22.1 22.1 0 0 1 18.48 8.12 5.68 5.68 0 0 1 3.79-1.6c6.9-.83 14.37 1.38 21 6.19 5.64 4.08 8.64 9.17 8.23 14a.49.49 0 0 1 -.43.43z" fill="#231f20"/><path d="m271.65 267.38a14.21 14.21 0 0 0 -12.94-3.66c1.53-3.62-1.49-7.88-5.24-9.06s-7.81-.15-11.55 1.06-7.58 2.61-11.49 2.15c-8.79-1-15-11.07-23.8-10.82-4.89.14-9.15 3.51-14 4.26-5.72.87-10.38-2.6-15.94-1.64-4.91.84-10.22 2.94-13 7.26a7.23 7.23 0 0 1 -1.71 2.15 4.46 4.46 0 0 1 -3.55.35c-1.59-.37-3.08-1.11-4.69-1.41a4.8 4.8 0 0 0 -4.54 1.15c-.78.88-1 2.14-1.82 3-1.69 1.81-4.66 1-7 .13a9.57 9.57 0 0 0 -7.64.6c-.74.34-5.14 4.49-4.77 4.49z" fill="#68e1fd"/><path d="m271.65 267.88h-143.71a.54.54 0 0 1 -.51-.41c-.19-.87 5-5 5.07-5a10.08 10.08 0 0 1 8-.61c2.53.89 5.05 1.51 6.46 0a5.59 5.59 0 0 0 .86-1.41 6.92 6.92 0 0 1 .95-1.57 5.22 5.22 0 0 1 5-1.31 18.86 18.86 0 0 1 2.65.77 20.72 20.72 0 0 0 2.07.65 4.07 4.07 0 0 0 3.14-.28 5.13 5.13 0 0 0 1.3-1.58l.28-.44c3.16-4.82 9-6.73 13.37-7.48 2.9-.49 5.57.17 8.16.81a19.47 19.47 0 0 0 7.8.83 26.28 26.28 0 0 0 6.19-2 22.27 22.27 0 0 1 7.87-2.22c4.83-.15 8.92 2.71 12.87 5.47 3.43 2.4 7 4.88 11 5.35 3.49.42 7-.73 10.39-1.84l.89-.29c3.9-1.26 8-2.26 11.85-1.06a9.12 9.12 0 0 1 5.35 4.71 6.35 6.35 0 0 1 .48 4.16 14.77 14.77 0 0 1 12.57 3.87.48.48 0 0 1 .13.55.5.5 0 0 1 -.48.33zm-142.69-1h141.33a13.48 13.48 0 0 0 -11.46-2.67.5.5 0 0 1 -.58-.68 5.18 5.18 0 0 0 -.19-4.22 8 8 0 0 0 -4.74-4.17c-3.55-1.12-7.5-.16-11.24 1.05l-.89.29c-3.49 1.14-7.11 2.32-10.82 1.89-4.26-.5-7.92-3.06-11.45-5.53-4-2.79-7.75-5.42-12.27-5.29-2.6.08-5 1.08-7.51 2.15a27.67 27.67 0 0 1 -6.43 2.1 20.38 20.38 0 0 1 -8.2-.85c-2.59-.65-5-1.25-7.74-.79-4.16.72-9.74 2.52-12.7 7l-.27.42a5.89 5.89 0 0 1 -1.58 1.87 4.79 4.79 0 0 1 -3.94.43c-.75-.18-1.47-.43-2.17-.67a17.64 17.64 0 0 0 -2.5-.74 4.27 4.27 0 0 0 -4.08 1 5.94 5.94 0 0 0 -.8 1.35 6.5 6.5 0 0 1 -1 1.65c-1.8 1.93-4.68 1.27-7.52.26a9 9 0 0 0 -7.26.58 34.68 34.68 0 0 0 -3.95 3.57z" fill="#231f20"/><path d="m171.87 263.34a.52.52 0 0 1 -.29-.09.5.5 0 0 1 -.11-.7 16.37 16.37 0 0 1 4.68-4.78c1.74-1 4.39-1.42 6.31-.09a18.18 18.18 0 0 1 21.44-3.27.5.5 0 1 1 -.49.87 17.12 17.12 0 0 0 -20.52 3.41.51.51 0 0 1 -.71 0c-1.56-1.36-4-1-5.53-.1a15.64 15.64 0 0 0 -4.37 4.51.51.51 0 0 1 -.41.24z" fill="#231f20"/><path d="m201.55 148.76c1.62 3.31 5.53 4.77 9.16 5.44a43.18 43.18 0 0 0 30.46-5.75" fill="#68e1fd"/><path d="m218.41 155.41a42.55 42.55 0 0 1 -7.8-.72c-4.9-.91-8.1-2.84-9.51-5.71a.5.5 0 1 1 .9-.44c1.26 2.58 4.22 4.32 8.8 5.17a42.71 42.71 0 0 0 30.11-5.71.49.49 0 0 1 .69.16.51.51 0 0 1 -.16.69 43.84 43.84 0 0 1 -23.03 6.56z" fill="#231f20"/><path d="m153.81 229.83c0-.85-11-7.6-12.1-6.48s-3.38 3.94-2.26 4.79 5.61 6.47 7 5.91 7.36-4.22 7.36-4.22z" fill="#fff"/><path d="m146.26 234.59c-1.24 0-3.08-1.86-5.48-4.41a20.6 20.6 0 0 0 -1.63-1.64 1.29 1.29 0 0 1 -.5-1c-.12-1.74 2.59-4.47 2.7-4.58.45-.45 1.33-.35 3 .33 2.65 1.09 10 5.31 10 6.5a.5.5 0 0 1 -.23.42c-.25.15-6 3.69-7.42 4.27a1 1 0 0 1 -.44.11zm-4.14-10.87h-.1c-1.17 1.17-2.43 3-2.37 3.77a.28.28 0 0 0 .1.23 18.22 18.22 0 0 1 1.76 1.75c1 1.08 4.1 4.37 4.78 4.1 1.15-.46 5.43-3.06 6.82-3.92-1.7-1.8-9.7-5.93-10.99-5.93z" fill="#231f20"/><path d="m280.5 244.56h-10.42s-1 5.12 0 5.12h10.42z" fill="#fff"/><path d="m280.5 250.18h-10.42a.81.81 0 0 1 -.62-.3c-.7-.86-.14-4.08.13-5.42a.51.51 0 0 1 .49-.4h10.42a.5.5 0 0 1 .5.5v5.12a.5.5 0 0 1 -.5.5zm-10.3-1h9.8v-4.12h-9.5a12.5 12.5 0 0 0 -.3 4.12z" fill="#231f20"/><path d="m242.4 228.66s-6.33 3.69-6.36 5 1.86 2.34 1.86 2.34l-1.13 3.15 2.45 4s9.45-7.76 10.16-9.42-6.98-5.07-6.98-5.07z" fill="#fff"/><path d="m239.22 243.61h-.08a.46.46 0 0 1 -.34-.23l-2.46-4a.5.5 0 0 1 0-.43l1-2.76a3.3 3.3 0 0 1 -1.74-2.52c0-1.47 4.63-4.3 6.61-5.45a.45.45 0 0 1 .45 0c2.45 1.08 8.06 3.78 7.24 5.69-.73 1.72-9.32 8.81-10.3 9.61a.52.52 0 0 1 -.38.09zm-1.9-4.54 2 3.29c3.63-3 9.11-7.78 9.58-8.86.23-.55-2.54-2.52-6.5-4.28-3.15 1.86-5.82 3.89-5.89 4.49 0 .83 1.17 1.61 1.58 1.82a.51.51 0 0 1 .25.62z" fill="#231f20"/><path d="m146.48 143.81c.33 2.76 2.84 4.67 5.2 6.14s5.19 3 8.13 3.28c4.5.37 8.73-2.22 12.05-5.28a7.94 7.94 0 0 0 7.87 2.26 13.65 13.65 0 0 0 7-4.74" fill="#68e1fd"/><path d="m160.69 153.77c-.31 0-.62 0-.92 0-3.16-.26-6-1.87-8.35-3.36s-5.08-3.53-5.44-6.5a.5.5 0 0 1 1-.12c.3 2.55 2.68 4.35 5 5.78s5 3 7.9 3.21c3.7.3 7.63-1.43 11.67-5.16a.44.44 0 0 1 .37-.13.53.53 0 0 1 .36.17 7.4 7.4 0 0 0 7.36 2.1 13.4 13.4 0 0 0 6.77-4.57.5.5 0 0 1 .7-.07.51.51 0 0 1 .06.71 14.1 14.1 0 0 1 -7.29 4.91 8.57 8.57 0 0 1 -8-2c-3.88 3.31-7.6 5.03-11.19 5.03z" fill="#231f20"/><path d="m104.43 77a14.15 14.15 0 0 0 -8.27 9c-.74 2.55-.66 5.54 1 7.58" fill="#68e1fd"/><path d="m97.21 94.1a.5.5 0 0 1 -.39-.18c-1.62-1.94-2-4.94-1.14-8a14.71 14.71 0 0 1 8.57-9.36.51.51 0 0 1 .37.94 13.64 13.64 0 0 0 -8 8.71c-.81 2.77-.46 5.43 1 7.11a.49.49 0 0 1 -.06.7.51.51 0 0 1 -.35.08z" fill="#231f20"/><path d="m169.29 235.88s-4.22.19-4.22 1.88v5.35h6.49z" fill="#fff"/><path d="m171.56 243.61h-6.49a.5.5 0 0 1 -.5-.5v-5.35c0-2.06 3.91-2.34 4.7-2.37a.48.48 0 0 1 .5.35l2.23 7.26a.52.52 0 0 1 -.07.45.48.48 0 0 1 -.37.16zm-6-1h5.31l-1.95-6.2c-1.48.12-3.36.59-3.36 1.35z" fill="#231f20"/><path d="m238.86 264.42a.49.49 0 0 1 -.42-.23 9.64 9.64 0 0 0 -2.74-2.84c-3.77-2.56-8.69-2.2-13.84-1.56a3.59 3.59 0 0 0 -2.62 1.06.5.5 0 0 1 -.83-.57 4.45 4.45 0 0 1 3.33-1.48c5.34-.67 10.47-1 14.52 1.72a10.67 10.67 0 0 1 3 3.14.51.51 0 0 1 -.16.69.52.52 0 0 1 -.24.07z" fill="#231f20"/><path d="m127.9 256.91h-.3a13.13 13.13 0 0 1 -3.46-.64 3.17 3.17 0 0 1 -1.88-1.48 1.42 1.42 0 0 1 0-1.19 2.4 2.4 0 0 1 1.09-1.07c.33-.2.61-.37.68-.61a1.28 1.28 0 0 0 0-.44 2.94 2.94 0 0 1 0-.66 2.42 2.42 0 0 1 1.32-1.52 2.17 2.17 0 0 0 .88-.76 2 2 0 0 0 .15-.43 1.52 1.52 0 0 1 .91-1.22c1.22-.38 5.9 2.46 7.37 4.48.76 1 .59 1.73.32 2.13-.6.83-1.61.43-2.42.12-.54-.22-1.15-.46-1.46-.3s-.54.71-.72 1.32a3 3 0 0 1 -1.34 2.06 2.6 2.6 0 0 1 -1.14.21zm-.34-9.07c-.1 0-.17.3-.24.53a3.42 3.42 0 0 1 -.21.59 3.11 3.11 0 0 1 -1.24 1.18c-.51.32-.82.53-.87.85a1.77 1.77 0 0 0 0 .4 2.15 2.15 0 0 1 0 .79 2.21 2.21 0 0 1 -1.12 1.2 1.53 1.53 0 0 0 -.69.59.51.51 0 0 0 0 .4 2.3 2.3 0 0 0 1.29.94 12 12 0 0 0 3.2.59 1.85 1.85 0 0 0 .92-.11c.47-.23.63-.79.83-1.45a2.79 2.79 0 0 1 1.24-1.93 3 3 0 0 1 2.27.26c.62.25 1.1.42 1.23.24s0-.57-.18-.77c-1.21-1.9-5.62-4.43-6.43-4.3z" fill="#231f20"/><path d="m268.63 230.72s-4.17.57-4.6 1.27-2.11 3.89-2.11 3.89 2.68.8 4.23 0a3.65 3.65 0 0 0 1.83-2.4 1.68 1.68 0 0 0 1.64 1.47c1.45 0 3.71-.29 3.71-.85a35.93 35.93 0 0 0 -1.68-4.36z" fill="#fff"/><path d="m264.35 236.74a9.56 9.56 0 0 1 -2.57-.38.49.49 0 0 1 -.3-.71c.07-.13 1.7-3.21 2.12-3.92s3.26-1.27 4.91-1.5l3-1a.5.5 0 0 1 .61.28 27.63 27.63 0 0 1 1.73 4.56c0 1.25-3.22 1.35-4.21 1.35a2 2 0 0 1 -1.6-.71 4 4 0 0 1 -1.65 1.59 4.41 4.41 0 0 1 -2.04.44zm-1.68-1.19a5.62 5.62 0 0 0 3.25-.11 3.11 3.11 0 0 0 1.56-2.05.55.55 0 0 1 .52-.39.5.5 0 0 1 .48.43 1.17 1.17 0 0 0 1.15 1 9.09 9.09 0 0 0 3.18-.46 37.08 37.08 0 0 0 -1.43-3.64l-2.59.85h-.09a13.72 13.72 0 0 0 -4.24 1c-.3.58-1.29 2.42-1.79 3.37z" fill="#231f20"/><g fill="#d1d3d4"><path d="m168.83 224.22a1 1 0 0 0 -1.23-.7 4.56 4.56 0 0 1 -.78.22 2.41 2.41 0 0 0 -3.37-.18 1 1 0 0 0 .2 1.57 5.65 5.65 0 0 0 2.2.64 1 1 0 0 0 .75.1 1.39 1.39 0 0 0 .21-.11 5.51 5.51 0 0 0 1.32-.31 1.1 1.1 0 0 0 .6-.46 1.09 1.09 0 0 0 .1-.77z"/><path d="m150.57 246.9-.2-.48a1.55 1.55 0 0 0 -.52-.56 1 1 0 0 0 -.4-.24 1 1 0 0 0 -.44-.25 1 1 0 0 0 -.5-.14 1.45 1.45 0 0 0 -.8 0 1.47 1.47 0 0 0 -.43.15c-.2 0-.4-.06-.59-.07a4.74 4.74 0 0 0 -1.91.15 1.84 1.84 0 0 0 -1.08.87 2.1 2.1 0 0 0 0 1.65c0 .1.06.19.08.29v.1.3s0 .08 0 .11a2.29 2.29 0 0 1 -.07.28v.11a.48.48 0 0 1 0 .11 1.19 1.19 0 0 1 -.08.16c0 .06-.23.32-.08.13a1 1 0 0 0 -.2 1.09 1 1 0 0 0 .91.61 16.79 16.79 0 0 0 4.17-.65 1 1 0 0 0 .71-.85 2.8 2.8 0 0 0 .43-.19 2.56 2.56 0 0 0 .88-.91 2.28 2.28 0 0 0 .3-1.11 1.93 1.93 0 0 0 -.18-.66z"/><path d="m239.93 248.94a1 1 0 0 0 -1-1h-.09a2.41 2.41 0 0 0 -.33-.15 1.28 1.28 0 0 0 -.27-.05 1.42 1.42 0 0 0 -.29 0 2.2 2.2 0 0 0 -.63.12 5.46 5.46 0 0 0 -.6.27 1 1 0 0 0 -.21 1.57 2.31 2.31 0 0 0 .8.47 0 0 0 0 0 0 0 1.31 1.31 0 0 0 .24.17 1 1 0 0 0 .43.15h.17a1.45 1.45 0 0 0 .29 0 2 2 0 0 0 .31-.13 1.42 1.42 0 0 0 .44-.44 2.1 2.1 0 0 0 .41-.31 1.05 1.05 0 0 0 .33-.67z"/><path d="m257.11 248.36-.63-1.39a.77.77 0 0 0 -.26-.28.84.84 0 0 0 -.34-.17.68.68 0 0 0 -.4 0 .65.65 0 0 0 -.37.12 1 1 0 0 0 -.46.59v.27a1 1 0 0 0 .13.5l.63 1.39a.78.78 0 0 0 .26.28.75.75 0 0 0 .34.18.78.78 0 0 0 .4 0 .81.81 0 0 0 .37-.12 1 1 0 0 0 .46-.6v-.27a1 1 0 0 0 -.13-.5z"/><path d="m132.63 213.14a2.69 2.69 0 0 0 -.39-.5 1.76 1.76 0 0 0 -.73-.47 1.55 1.55 0 0 0 -.77-.17 2 2 0 0 0 -1 .27l-.12.07-.25.14-.46.27-.32.18-.23.1-.21.12a4.44 4.44 0 0 0 -.59.46 1.43 1.43 0 0 0 -.42.64 1.58 1.58 0 0 0 -.17.77c0 .18.05.36.07.53a1.45 1.45 0 0 0 .36.68 1 1 0 0 0 .36.36 1.45 1.45 0 0 0 .68.36l.53.07a2 2 0 0 0 1-.27l.17-.1a1.91 1.91 0 0 0 .58.06 1.28 1.28 0 0 0 .51-.06 1.51 1.51 0 0 0 .64-.33 2.19 2.19 0 0 0 .7-.72.21.21 0 0 0 0-.06 4.71 4.71 0 0 0 .21-.52 2.84 2.84 0 0 0 .1-.65 2.47 2.47 0 0 0 -.25-1.23z"/><path d="m124.38 234.13a1.91 1.91 0 0 0 -.51-.88l-.4-.31a2.13 2.13 0 0 0 -1-.28h-.38a1.48 1.48 0 0 0 -.77.18 1.41 1.41 0 0 0 -.64.41 1.49 1.49 0 0 0 -.42.64 1.58 1.58 0 0 0 -.17.77c0 .18 0 .36.07.54a2.08 2.08 0 0 0 .52.88l.4.31a2 2 0 0 0 1 .27h.38a1.47 1.47 0 0 0 .77-.17 1.56 1.56 0 0 0 .64-.41 2.35 2.35 0 0 0 .59-1.42z"/><path d="m279.73 259.61a1.77 1.77 0 0 0 -1.06-.44h-.13a1.32 1.32 0 0 0 -.68-1l-2.14-1.11a1.52 1.52 0 0 0 -2.26 1.29.08.08 0 0 0 0 0 1.4 1.4 0 0 0 -.1.16l-.16.1a1.51 1.51 0 0 0 -1.5 1.5 1.53 1.53 0 0 0 1.5 1.5c1.85.13 3.72.24 5.57.44a1.46 1.46 0 0 0 1.06-.44 1.5 1.5 0 0 0 .44-1.06 1.52 1.52 0 0 0 -.54-.94z"/><path d="m286.08 235.58a1 1 0 0 0 -.17-.55 1.13 1.13 0 0 0 -.39-.42 1 1 0 0 0 -.51-.27l-.4-.06a1.48 1.48 0 0 0 -.76.21l-.28.22a1.21 1.21 0 0 0 -.44.15 1.13 1.13 0 0 0 -.42.39 1.26 1.26 0 0 0 -.27.51l-.05.4a1.47 1.47 0 0 0 .2.76l.24.3a1.47 1.47 0 0 0 .66.39h.06l.45.06h.11a2.31 2.31 0 0 0 .51-.07 3.71 3.71 0 0 0 .46-.19 2.27 2.27 0 0 0 .25-.18 1.1 1.1 0 0 0 .23-.2 2.88 2.88 0 0 0 .27-.34 2.76 2.76 0 0 0 .2-.47 1.11 1.11 0 0 0 .05-.64z"/><path d="m228.09 235.16a.06.06 0 0 0 0 0 2.72 2.72 0 0 0 -.11-.25l-.16-.21a1.79 1.79 0 0 0 -.28-.2l-.27-.12h-.09-.31-.07-.29-.08a1.48 1.48 0 0 0 -.32.14 1.73 1.73 0 0 0 -.21.17l-.08.11-.09.11a1.36 1.36 0 0 0 -.14.33.78.78 0 0 0 0 .4.7.7 0 0 0 .11.37.78.78 0 0 0 .26.28.75.75 0 0 0 .34.18h.27a1 1 0 0 0 .34-.07.76.76 0 0 0 .2.06.78.78 0 0 0 .4 0l.23-.1a1 1 0 0 0 .36-.36l.1-.24a1 1 0 0 0 -.11-.6z"/><path d="m254.23 223.15a1 1 0 0 0 0 2 1 1 0 0 0 0-2z"/></g><path d="m138.25 118.09a17.88 17.88 0 0 1 21.25-18.46 37.09 37.09 0 0 1 23.5-16.63 18.24 18.24 0 0 1 10 .22c3.17 1.15 5.9 3.92 6.24 7.28" fill="#68e1fd"/><path d="m138.25 118.59a.51.51 0 0 1 -.5-.47 18.37 18.37 0 0 1 21.51-19 37.77 37.77 0 0 1 23.67-16.54c4.07-.86 7.42-.79 10.24.24 3.6 1.31 6.24 4.4 6.56 7.7a.49.49 0 0 1 -.44.54.5.5 0 0 1 -.55-.45c-.29-2.92-2.66-5.67-5.91-6.85-2.64-1-5.82-1-9.7-.2a36.74 36.74 0 0 0 -23.2 16.38.51.51 0 0 1 -.52.22 17.38 17.38 0 0 0 -20.66 17.95.49.49 0 0 1 -.47.52z" fill="#231f20"/>
  </symbol>
  
  <symbol id="fire" viewBox="0 0 128 128">
    <radialGradient id="a" cx="68.8839" cy="124.2963" gradientTransform="matrix(-1 -.00434301 -.00712592 1.6408 131.9857 -79.3452)" gradientUnits="userSpaceOnUse" r="70.587"><stop offset=".3144" stop-color="#ff9800"/><stop offset=".6616" stop-color="#ff6d00"/><stop offset=".9715" stop-color="#f44336"/></radialGradient><radialGradient id="b" cx="64.9211" cy="54.0621" gradientTransform="matrix(-.0101 .9999 .7525 .00760378 26.1538 -11.2668)" gradientUnits="userSpaceOnUse" r="73.8599"><stop offset=".2141" stop-color="#fff176"/><stop offset=".3275" stop-color="#fff27d"/><stop offset=".4868" stop-color="#fff48f"/><stop offset=".6722" stop-color="#fff7ad"/><stop offset=".7931" stop-color="#fff9c4"/><stop offset=".8221" stop-color="#fff8bd" stop-opacity=".804"/><stop offset=".8627" stop-color="#fff6ab" stop-opacity=".529"/><stop offset=".9101" stop-color="#fff38d" stop-opacity=".2088"/><stop offset=".9409" stop-color="#fff176" stop-opacity="0"/></radialGradient><path d="m35.56 40.73c-.57 6.08-.97 16.84 2.62 21.42 0 0-1.69-11.82 13.46-26.65 6.1-5.97 7.51-14.09 5.38-20.18-1.21-3.45-3.42-6.3-5.34-8.29-1.12-1.17-.26-3.1 1.37-3.03 9.86.44 25.84 3.18 32.63 20.22 2.98 7.48 3.2 15.21 1.78 23.07-.9 5.02-4.1 16.18 3.2 17.55 5.21.98 7.73-3.16 8.86-6.14.47-1.24 2.1-1.55 2.98-.56 8.8 10.01 9.55 21.8 7.73 31.95-3.52 19.62-23.39 33.9-43.13 33.9-24.66 0-44.29-14.11-49.38-39.65-2.05-10.31-1.01-30.71 14.89-45.11 1.18-1.08 3.11-.12 2.95 1.5z" fill="url(#a)"/><path d="m76.11 77.42c-9.09-11.7-5.02-25.05-2.79-30.37.3-.7-.5-1.36-1.13-.93-3.91 2.66-11.92 8.92-15.65 17.73-5.05 11.91-4.69 17.74-1.7 24.86 1.8 4.29-.29 5.2-1.34 5.36-1.02.16-1.96-.52-2.71-1.23-2.15-2.05-3.7-4.72-4.44-7.6-.16-.62-.97-.79-1.34-.28-2.8 3.87-4.25 10.08-4.32 14.47-.22 13.57 10.99 24.57 24.55 24.57 17.09 0 29.54-18.9 19.72-34.7-2.85-4.6-5.53-7.61-8.85-11.88z" fill="url(#b)"/>
  </symbol>
  
  <symbol id="ship_2" viewBox="0 0 352 135.75">
	<g id="base">
		<path stroke="#000000" stroke-miterlimit="10" d="M9.889,130.574l-6.181-11.497l-2.586-13.725h20.767l0.359-15.376H39.35
			l0.36-67.114h3.808v67.188h6.969V22.863h4.097v67.042l2.802,0.145v-7.401l22.851-0.073v7.187l4.167,0.072v14.802l10.42,0.07
			l1.079-2.659l12.503-50.302l8.982,0.074c0,0,7.474-7.618,12.503-14.802c5.03-7.187,11.209-19.475,11.209-19.475l-14.299-0.359
			l-2.658-7.833h17.533v-6.54h4.456v6.54l17.605,0.216l-2.3,7.617l-15.234,0.072v34.348l3.737,0.216v-6.898l5.101-0.073l0.215-15.304
			l3.091,0.071l0.144,15.233h4.096l0.359-15.233l2.802-0.143v15.161l5.317-0.072v7.187l7.976-0.071l4.96,19.33l14.515,0.358
			l5.604,22.348l35.786-0.071v10.707l7.976-0.216l4.887-19.26l1.582-6.467h6.107l1.726-7.041l14.442,0.144l2.084,7.113l5.892,0.072
			l0.792,2.946l42.539-7.76l0.863,3.901l-41.679,10.542l3.951,13.437L351,97.808c0,0-0.215,11.354-4.742,15.737
			c-4.527,4.384-3.952,4.024-8.336,6.108c-4.383,2.084-7.186,3.88-8.838,6.396c-1.652,2.515-2.443,1.364-1.939,5.965
			c0.502,4.598,0.502,2.012,0.502,2.012l-79.332,0.725l-107.5-2.09L42.8,130.863L9.889,130.574z"/>
	</g>
	<g id="Layer_3">
		<polyline fill="#FFFFFF" points="161.312,79.753 161.312,82.124 201.247,82.124 200.654,79.753 	"/>
	</g>
	<g id="Layer_4">
		<polygon fill="#FFFFFF" points="202.324,87.999 165.838,87.999 165.838,89.885 202.918,90.154 	"/>
	</g>
	<g id="Layer_5">
		<rect x="164.329" y="60.729" fill="#FFFFFF" width="11.156" height="6.036"/>
	</g>
	<g id="Layer_6">
		<rect x="146.599" y="60.729" fill="#FFFFFF" width="14.012" height="6.036"/>
	</g>
	<g id="Layer_7">
		<rect x="128.544" y="60.729" fill="#FFFFFF" width="13.851" height="6.036"/>
	</g>
	<g id="Layer_8">
		<rect x="113.885" y="60.729" fill="#FFFFFF" width="10.563" height="6.036"/>
	</g>
	<g id="Layer_9">
		<path fill="#FFFFFF" d="M141.91,51.782h-10.024c0,0,1.401-1.132,5.227-5.713c2.957-3.539,4.933-8.084,4.933-8.084"/>
	</g>
	<g id="Layer_10">
		<path fill="#FFFFFF" d="M129.514,51.782h-9.943c0,0,6.998-7.761,10.824-12.002c4.994-5.532,11.65-19.822,11.65-19.822
			l-0.161,14.524c0,0-3.612,7.221-5.983,9.997"/>
	</g>
  </symbol>
  
  <symbol id="ship_3" viewBox="0 0 352 145">
	<g id="bottom">
		<path stroke="#000000" stroke-miterlimit="10" d="M20.478,120.955c0,0-4.64-15.227-7.69-20.712
			c-0.646-1.162-0.872-2.871,0.923-3.998c1.307-0.822,328.628-0.309,328.628-0.309s5.845,0.82,6.46,4.203
			c0.615,3.385-1.908,15.775-7.485,21.994c-11.628,12.965-21.405,16.645-27.89,17.586c-27.378,3.97-287.716,0.615-287.716,0.615
			s-2.768-0.104-3.794-3.384C20.888,133.669,22.835,127.996,20.478,120.955z"/>
	</g>
	<g id="Layer_3">
		<path stroke="#000000" stroke-miterlimit="10" d="M114.58,96.219l7.938-21.948c0.889-1.248,2.033-2.211,3.743-2.375
			c2.749-0.266,7.724-0.121,7.724-0.121s1.546-9.775,3.999-11.033c2.41-1.236,6.024-0.795,6.024-0.795s0.068-5.33,0.093-5.792
			c0.026-0.461,0.428-1.094,0.419-2.104c-0.007-0.852-22.865-7.534-23.66-9.177c-0.496-1.024-0.128-1.718-0.077-1.948
			s0.692-1.256,1.692-1.256c1,0,24.326,8.741,24.326,8.741s0.112-0.516,1.128-1.108C148.75,46.824,169,47.154,169,47.154
			s3.504,2.985,3.793,4.974c0.283,1.93,0,7.869,0,7.869s3.513,0.026,4.127,0.026c0.616,0,1.02-1.985,3.546-4.449
			c2.259-2.2,4.145-2.959,4.709-2.856c0.563,0.103,24.403-0.129,24.403-0.129s1.59-0.077,3.307-1.691s1.401-2.382,1.401-2.586
			c0-0.205,0.162-28.123,0.162-28.123s-0.127-0.487,0.949-1.282c1.076-0.794,1.024-0.512,1.024-0.512l4.281-0.18v-6.229h-4.613
			c0,0-0.641-0.256-0.77-0.487c-0.128-0.231-0.692-0.512-0.692-0.897c0-0.384,0.077-5.229,0.077-5.229s0.206-0.333,0.41-0.667
			c0.205-0.333,0.589-0.41,0.589-0.41h14.1l0.641,0.589l0.41,0.642v4.716c0,0-0.153,0.616-0.487,1
			c-0.333,0.384-0.615,0.563-0.821,0.666c-0.203,0.103-4.434,0.128-4.434,0.128l-0.103,6.1h3.332c0,0,1.436,0.386,1.743,0.77
			c0.309,0.384,0.77,1.307,0.77,1.307v19.559c0,0,0.257,0.743,0.974,1.589c0.718,0.847,1.205,0.82,1.205,0.82l4.769,0.051
			c0,0,0.641-0.101,1.384,1.026c0.743,1.128,0.693,1.333,0.693,1.333l0.152,15.174h9.459l0.136-23.896c0,0,0.583-1.352,2.249-1.25
			c1.666,0.103,1.947,1.359,1.947,1.359l-0.009,23.867h7.059l0.222-34.999c0,0,0.676-1.71,2.085-1.583
			c1.41,0.128,2.205,1.461,2.205,1.461v35.067l9.305-0.077v-7.08c0,0,0.682-1.802,1.444-2.991c0.596-0.932,1.683-2.593,2.118-2.618
			c0.437-0.024,21.047,0.052,21.047,0.052s0.743,0.334,0.999,0.59c0.257,0.256,0.486,0.563,0.486,0.563l24.002-8.481
			c0,0,1.632-0.183,2.299,1.228c0.667,1.409-0.358,2.46-0.999,2.717C325.445,43.95,303.527,52,303.527,52l0.281,7.69l4.308,0.229
			c0,0,0.626-0.157,1.539,0.667c1.181,1.066,1.387,2.16,1.387,2.16l3.123,8.914l7.614,0.051c0,0,0.103-0.261,1.691,0.692
			c1.411,0.847,1.591,1.487,1.591,1.487l8.714,22.327H114.58z"/>
	</g>
	<g id="Layer_4">
		<path opacity="0.2" stroke="#000000" stroke-miterlimit="10" d="M40.148,89.117"/>
		<path stroke="#000000" stroke-miterlimit="10" d="M44.317,72.917c3.923-4.139,5.247-4.2,5.247-4.2l4.716-0.001l-0.051-7.483
			L5.935,45.135c0,0-1.385-1.335-0.77-2.359c0.615-1.025,0.461-0.666,1.692-1.487c1.23-0.82,48.91,15.944,48.91,15.944
			s2.05-2.973,3.229-3.844c1.18-0.872,25.789-0.257,25.789-0.257s2.05,1.436,2.818,2.461c0.77,1.024,1.642,2.666,1.847,3.435
			l0.256,9.639c0,0,3.281-0.071,4.921,0.554s3.282,2.317,4.306,3.395c1.026,1.075,2.41,2.614,3.076,4.204
			c0.667,1.588,1.026,19.48,1.026,19.48h-63.06c0.347-4.244,0.586-18.063,0.586-18.063l1.439-2.519L44.317,72.917z"/>
	</g>
  </symbol>
  
  <symbol id="ship_4" viewBox="0 0 352 91.334">  
	<g id="Layer_2">
		<path d="M341.817,90.277l-331.33-0.081c0,0-1.189,1.189-3.075-3.442c0,0-0.369-0.205-1.271-3.896c-0.901-3.69,0-4.674,0-4.674
			l-2.213-2.46l-2.213-0.245v-2.87h2.582l-0.123-1.64l-2.254-1.968l0.369-0.328l2.09,1.68c0,0,1.354-0.449,2.788,0.206
			c1.435,0.656,1.065,0.656,1.065,0.656l0.124,1.435l1.557,1.024c0,0,0.826-0.942,1.61-2.741c0.784-1.798,0.199-1.875,0.199-1.875
			s0.493,0.03,0.569-0.247c0.077-0.276-0.569-1.767-0.569-1.767l0.354-0.094c0,0,1.968,0.97,2.122,2.016
			c0.153,1.045,0.415,2.198-0.4,3.689c-0.815,1.49,0.308,1.937,0.308,1.937l1.614,0.031l0.062-6.504c0,0,1.107-0.307,1.845-1.06
			s0.999-1.769,0.999-1.769l-2.828-0.185l-0.154-3.443c0,0,0.061-0.247-0.584-0.276c-0.646-0.032-0.708,0.291-0.708,0.291
			l-0.537,2.322l-0.446-0.047c0,0-0.553-1.46-0.584-2.29c-0.031-0.831,0.539-1.814,1.445-2.091S29.1,59.326,29.1,59.326l0.021-4.364
			l4.366-0.102v-2.275l-5.494-3.525l0.533-0.513l5.083,2.951l5.473-0.06l0.451,1.024l2.911-0.021l0.02,2.46l2.398,0.061l0.041,4.346
			l7.625,0.019l0.226-0.346v-0.9h0.226l0.061,1.246h5.371l0.307-0.346l0.02-0.82l0.288-0.021l-0.021,1.188h1.353l0.062,0.27
			l3.115-0.062l0.021-0.208l1.127-0.099l0.062-1.108h0.288l0.061,1.207h1.312l0.02,0.248l3.32-0.04l0.021-0.208h1.086l0.104-1.227
			l0.266,0.02l0.164,1.207h1.188l0.082,0.248l4.94-0.021l0.02-7.009l-0.512-0.041v-1.024c0,0,0.697-1.313,2.357-1.292
			c1.661,0.021,2.377,1.311,2.377,1.311l0.082,1.026h-0.389l0.184,7.092l7.42,0.021l-0.103-7.112l-0.472-0.083l0.021-1.064
			c0,0,0.902-1.107,2.377-1.251c1.476-0.145,2.542,1.291,2.542,1.291l0.103,1.128l-0.471-0.021v7.297h7.831l-0.021-7.216l-0.43-0.102
			l0.082-1.045c0,0,1.128-1.374,2.377-1.271c1.251,0.103,2.439,1.311,2.439,1.311l0.103,0.943l-0.45,0.083l0.04,7.358l7.564,0.021
			l0.083-0.308h1.147l0.021-1.169l0.266,0.021l0.041,1.169h1.147v0.308l3.219-0.063l-0.063-0.245l1.107,0.021l0.185-1.21l0.225-0.021
			l0.082,1.147l1.169,0.021v0.309l3.361-0.062l0.041-0.247h1.188l0.206-1.188h0.307v1.21h1.086l0.041,0.308l3.341,0.021l-0.02-0.37
			l1.024,0.042l0.205-1.148l0.266,0.021v1.128l1.148,0.021l0.02,0.287h3.342l-0.041-0.35l1.005,0.021l0.245-1.127h0.227l0.041,1.209
			l1.147-0.02l0.021,0.267l5.453-0.021l0.021-4.12l-1.456-0.02l0.062-3.793l0.882,0.041l0.019,0.554l1.189-0.021l-0.021-1.97
			l-2.521-1.884l0.225-0.227l2.112,1.374h1.374l2.438,1.576v0.554l0.226,0.021l0.04,0.246l1.147-0.021l0.021-1.414l-0.266-0.041
			l-0.021-2.645h0.922l0.042-0.554l-0.513-0.532l0.123-0.43h0.901l0.718,0.942v0.554h1.148l0.04-1.722h1.681l-0.021-2.07h2.624v1.147
			h2.11l0.021,0.84l1.721,0.083l-0.021-2.07h0.451l0.042-2.954h0.43v-2.69h0.287l0.164-23.575l-1.477-0.287l-0.635-0.43l0.041-1.455
			h0.267l-0.04,1.229l0.389,0.328h1.496l-0.021-2.357h-2.254l-0.411-0.491l0.021-2.769h-0.389l0.185-1.434h0.614l0.165-0.984
			l1.372,0.102v1.23l0.718,0.738l0.758-0.062l-0.041-2.788l-0.697-0.103l0.041-2.5h-0.923l0.021-0.963l2.378-0.083l-0.041,3.546
			l-0.451,0.041l-0.021,5.596l-0.697,0.063l0.021,3.176l1.619,0.021l0.062-2.378l0.411,0.042v2.295l0.984-0.02l-0.042-1.414
			l-0.327,0.041l0.04-2.132l1.496,0.082l0.021,2.009h-0.308l0.021,1.454l1.005,0.021V14.06l1.392,0.082v1.188l-1.414-0.021
			l-0.062-0.287l-0.943,0.062l0.041,4.305l0.431,0.062l-0.021,2.274l2.829,0.103l-0.041-1.968l-1.844-0.163l0.021-2.604
			c0,0,1.004,0.082,0.983,0.021c-0.021-0.063,0.041-0.882,0.041-0.882l3.32,0.021l-0.021,0.799h1.415v2.707l-2.768,0.06l-0.081,1.929
			l1.291,0.062l-0.062,0.697l-2.808-0.063l-0.103,0.492c0,0-0.594,0.902-0.779,2.07c-0.185,1.169-0.042,1.128-0.042,1.128
			l0.452,0.082l-0.082,0.922l-0.471,0.041l0.409,1.886l0.534-0.144l0.02,1.086l-0.225,0.104v1.373l2.87-0.185v-0.882l0.471,0.063
			l-0.062,0.737l0.369,0.061l-0.021,1.867l-1.517,1.639v0.861l0.533-0.021c0,0-0.164,0.39-0.062,0.39
			c0.102,0-0.574,0.041-0.574,0.041l0.06,0.778l1.457,0.083l0.061,1.68l0.923,0.083l0.02-1.189h0.758l-0.04,1.066l0.923,0.103
			l-0.104-12.463l1.128-0.021l0.061,7.235l-0.532-0.062l-0.021,6.416l1.517,0.04l0.083-1.086l0.266-0.86l0.718-0.062l0.062,1.989
			c0,0,0.471,0,0.533-0.021c0.061-0.02,0.082-1.476,0.082-1.476l-0.205-0.513l0.061-0.655l0.72-0.369l0.655,0.532l0.144,1.005
			l-0.842,0.062l0.083,1.395l0.8,0.08l0.799-1.187l0.841,0.02l0.102,0.799l-1.414,1.148l-0.02,1.291l1.413,0.021l0.021,3.833h0.739
			v3.771h-1.23l-0.451,0.779l-0.021,2.501c0,0-0.778,0-0.963,0.021c-0.186,0.021-2.645,6.088-2.645,6.088s-0.081,0.922,0.04,0.922
			c0.123,0,2.337,0.062,2.337,0.062l0.041-1.169h1.701l-0.122-1.086l0.389-0.368l0.8-0.082l0.328,0.594l-0.04,1.967l0.942,0.041
			V55.22l-1.086-0.062l-0.042-0.883h1.189l-0.083-2.356l-0.554,0.041l0.103-2.911l1.292-1.537l1.169-0.02l-0.021,1.086l0.985,0.389
			l-0.021,1.928l0.778,1.25l2.234,0.02l0.247-0.86l0.021-0.594l0.472-0.021l0.163,1.127l0.472-0.061l1.435-1.498l1.578-0.061
			l2.091-1.394l0.328,0.368l-2.11,1.477l-0.083,1.742l2.399,0.123l-0.041,2.685l-2.112,1.701l0.021,2.911l1.148,0.062l0.471-0.636
			v-1.045h0.411l0.062,0.737l0.696,0.041l0.677,0.778l5.452,0.063l0.041-0.513l0.923-0.081l0.328-1.066l0.245-0.041l0.041,1.168
			l1.27,0.042l-0.04,0.553l3.015-0.062l0.245-0.491l1.045-0.103l0.246-1.23l0.205,0.021l0.103,1.21l1.313,0.02l0.04,0.391
			l2.768-0.062l0.021-0.37l0.983,0.103l0.267-1.168l0.349,0.041v1.106l1.251,0.042v0.246l3.013,0.041l-0.02-0.28h0.88l0.165-0.376
			l0.246-0.902l0.287-0.041l-0.041,1.319h1.208l-0.062,0.301l3.362-0.082l0.123-0.328l0.923-0.021l0.164-1.394h0.308l0.307,1.524
			l1.169-0.09l0.041,0.37l3.034-0.062l0.204-0.473l0.902-0.144l0.266-1.229l0.328-0.041l0.185,1.312l1.046-0.02v0.574l3.074,0.021
			v-0.636l1.066,0.103l0.348-1.333l0.268-0.021l0.185,1.251l0.901,0.02l0.082,0.493l2.521-0.096l0.103-0.336l1.251-0.021l0.163-1.25
			l0.205,0.021l0.246,1.313l1.188-0.063l0.062,0.336h2.686v-4.395l1.968-0.123l0.062-2.377l2.931-0.063l0.432-0.881h5.984
			l4.858-3.074l0.573,0.841l-5.37,3.177l-0.041,2.439l4.346,0.041l0.04,4.386l6.438,0.028l2.418-2.017l0.287,0.492l-1.803,1.524
			h14.922v-4.518l2.378,0.083v-2.44l2.563-0.02l0.943-0.901l5.432-0.104l4.959-2.951l0.473,0.82l-5.37,3.115l-0.062,2.46l4.386-0.021
			l0.124,4.427l5.063,0.049l-0.021-0.376l0.903,0.04l0.02-1.23l0.431-0.04l0.062,1.25h1.271l-0.063,0.356h3.054l0.063-0.438
			l1.045,0.063l0.123-1.394l0.247,0.019l0.266,1.334l1.087,0.122l0.041,0.295h3.422V58.97l1.148-0.02v-1.128l0.574,0.062
			l-0.103,1.066l1.046,0.081l0.041,0.295h2.992l-0.041-0.438h0.983l0.206-1.291l0.308-0.061l0.143,1.434l1.23-0.041l0.021,0.397
			l3.321-0.09V58.97l1.086,0.042l0.103-1.169l0.245-0.021l0.103,1.23l1.148-0.083l0.02,0.308l0.924,0.083l0.021,3.505l1.107,0.021
			l0.019,1.087l0.349,0.061l-0.061,5.596l1.004,0.063l-0.041-3.015l1.086-0.02l0.042-1.229l1.147,0.019l0.452-0.47l2.644-0.083
			l2.52-1.701l0.268,0.39l-2.706,1.968v1.414l2.214,0.042l-0.041,2.604l2.174,0.04L351,69.713l-8.814,11.848L341.817,90.277z"/>
	</g>
	<g id="Layer_3">
		<polyline fill="#FFFFFF" points="188.656,59.788 188.656,53.085 189.917,53.085 189.917,55.268 190.746,55.238 190.746,56.683 
			190.132,56.683 190.102,59.512 190.746,59.512 190.746,60.004 188.656,60.004 	"/>
	</g>
	<g id="Layer_4">
		<rect x="148.07" y="55.177" fill="#FFFFFF" width="3.351" height="4.673"/>
	</g>
	<g id="Layer_5">
		<rect x="168.117" y="35.672" fill="#FFFFFF" width="1.702" height="2.664"/>
		<rect x="168.117" y="32.454" fill="#FFFFFF" width="1.702" height="2.624"/>
		<polygon fill="#FFFFFF" points="170.29,32.454 172.4,32.454 172.852,33.521 171.786,34.811 170.29,34.811 	"/>
		<rect x="168.117" y="29.81" fill="#FFFFFF" width="1.455" height="1.824"/>
		<path fill="#FFFFFF" d="M169.08,29.132h-0.963v-2.07h0.728c0,0,0.01,0.122,0.123,1.147S169.08,29.132,169.08,29.132z"/>
		<path fill="#FFFFFF" d="M168.845,26.22h-0.503v-3.197h1.23c0,0-0.205,0.698-0.388,1.599
			C168.998,25.524,168.845,26.22,168.845,26.22z"/>
		<polygon fill="#FFFFFF" points="166.743,15.971 166.743,16.053 166.743,19.436 166.251,19.436 164.243,15.027 165.78,15.027 
			165.78,15.991 	"/>
		<polygon fill="#FFFFFF" points="163.731,15.027 166.396,20.133 166.396,21.813 163.731,21.813 	"/>
		<polygon fill="#FFFFFF" points="164.018,26.22 165.657,23.022 165.657,26.22 	"/>
		<polygon fill="#FFFFFF" points="165.063,22.447 165.063,23.575 163.629,26.322 163.629,22.447 	"/>
		<polygon fill="#FFFFFF" points="163.607,9.432 164.058,9.432 164.058,10.62 163.607,10.538 	"/>
		<polygon fill="#FFFFFF" points="163.116,9.432 163.116,10.866 161.209,10.866 161.209,8.899 162.336,8.899 162.316,9.432 	"/>
		<polygon fill="#FFFFFF" points="166.226,23.022 166.673,23.022 166.743,26.322 166.226,26.22 	"/>
		<polygon fill="#FFFFFF" points="163.629,26.873 165.289,26.873 164.838,30.625 163.629,30.625 	"/>
		<rect x="165.78" y="27.119" fill="#FFFFFF" width="0.963" height="1.769"/>
		<polygon fill="#FFFFFF" points="165.964,29.81 166.825,29.81 166.743,35.078 166.226,35.078 	"/>
		<polygon fill="#FFFFFF" points="164.566,35.672 165.964,35.672 165.964,38.604 164.345,38.604 164.345,36.851 	"/>
		<polygon fill="#FFFFFF" points="163.629,30.994 164.838,30.994 164.535,34.268 164.345,34.268 164.232,32.443 163.629,32.443 	"/>
		<polygon fill="#FFFFFF" points="165.964,35.078 164.642,35.078 165.303,29.502 165.58,29.502 	"/>
	</g>
  </symbol>
  
  <symbol id="ship_5" viewBox="0 0 352 108">
		<g id="Layer_2">
			<path d="M2.637,94.099l-1.95-11.16l0.33-0.129l1.62,8.437l1.545,1.723l1.394-0.05V85.04l0.329-0.025v7.244l2.66-0.051L8.311,78.506
				h0.38l0.151,13.728l28.548,0.785v2.002h1.393c0,0,0.051-0.709,1.038-0.709c0.988,0,1.013,0.709,1.013,0.709l4.13,0.151l0.177-5.344
				l-0.912-0.76l0.405-0.457l-2.28-2.761l-1.418-0.026l-0.329-0.378l-0.026-1.419l-1.671-2.077l0.557-0.507l2.178,1.95l0.938-0.152
				l0.304,0.405l0.126,1.217l2.559,2.734l0.482-0.251l-0.457-0.507l0.457-0.407c0,0,0.607-0.228,2.609,1.165
				c2,1.395,3.318,4.915,3.318,4.915l-0.685,1.114l-0.759-0.759l-0.735,0.658l0.051,1.799l7.042,0.152L59.3,86.99l2.787-0.127
				l0.126-1.189h-0.886v-0.279l0.886-0.102l-0.126-1.291l0.355-0.33v-1.038l-0.811,0.811l-0.355-0.025l-0.051-2.432l0.381-0.024
				l0.836,0.86l0.734-0.102v2.205l0.355-0.077v1.57l0.684-0.127v0.406h-0.785l-0.051,1.291h3.444l0.127-3.09l-1.57-0.229l0.025-0.405
				l1.545,0.051l0.177-1.039l0.633-0.024v-0.785l-0.329-0.127l0.101-0.71l-0.911-0.075l0.05-0.48l1.774-0.077l-1.774-1.493l0.38-0.457
				v-0.532l-1.165-1.089c0,0-0.71,0.025,1.189-1.849c1.9-1.876,2.254-1.216,2.254-1.216s1.469,2.127,1.546,2.077
				c0.075-0.05,0.81-0.71,0.81-0.71l0.456,0.506l-0.431,0.711c0,0,0.608,0.455,0.633,1.468c0.026,1.014-1.038,2.406-1.038,2.406
				l-0.709,0.331v0.431l2.127-0.077v0.531l-1.013,0.025l-0.252,1.165l4.711,0.076l0.147-3l0.004-0.09v-0.151l-1.24,0.013l0.05-0.241
				l1.19,0.025v-3.635l-1.481-0.037l0.039-0.216l1.443-0.05V74.06l1.28-1.026v-0.532h-1.051l0.025-0.469h1.114
				c0,0,0.254-0.037,0.317-0.67c0.063-0.634-0.355-0.621-0.355-0.621s-0.253,0.229-1.001-0.216c-0.747-0.443-0.228-1.292-0.393-1.076
				c-0.164,0.215,0.532-0.519,0.532-0.519l-1.266-1.33c0,0,0.139-0.862,1.114-1.621c0.975-0.76,2.165-1.367,2.165-1.367l1.66,2.076
				l0.797-0.658l0.468,0.455l-0.519,0.685c0,0,0.494,0.747,0.582,1.532c0.09,0.785-1.063,2.317-1.063,2.317l-0.025,0.481l-0.849,0.051
				l0.089,0.456l2.178,0.013v0.507l-1.9,0.025l-0.025,0.912l1.013,0.607l0.038,0.887l1.179,0.025v0.266l-1.229-0.039l-0.013,2.622
				l1.698-0.013l0.949-12.043l-1.431-0.04V65.46l1.431,0.025l0.506-2.736l0.204-0.126v-0.976l-0.723-0.557h-0.203l-0.67,0.696
				l-0.229-0.203l0.659-0.811l-0.039-0.899h0.533v0.938l1.19,0.037v1.952l0.506,0.013l0.229,2.672l1.481-0.014v0.317l-0.722,0.216
				l0.063,0.202l1.051,0.014v-0.267l9.525-0.24l1.229-9.208h-0.507l0.025-0.304h0.938l0.544-1.164v-1.077l-0.685-0.711l-1.013,0.951
				l0.406-0.951l0.114-0.367l-0.354-0.405l0.013-0.189h0.481l0.265-0.393l0.279-1.025h0.228l0.025,1.329l1.127,0.988l0.342,0.151
				v0.442l-0.709,0.242l-0.013,0.772l0.19,0.696l0.532,0.266l0.152,0.457l2.761,0.05l-1.697,3.661v0.835l1.102,5.471l1.026-0.265
				v1.394l0.278,0.025v0.265l-0.545-0.037l0.012-0.9l-0.481,0.014l-0.152,0.177l0.773,4.598l0.621,0.039c0,0,0.227,0.239,0.278,0.277
				c0.05,0.038,0,1.951,0,1.951l-0.417,0.265v0.85l0.646,3.242v5.789h4.155l0.216-11.843l0.265-0.355v-1.861h0.494v1.938l0.267,0.48
				l0.24,11.641l13.564-0.026V79.1l2.9-0.05v-0.963l-0.772-0.215c0,0,0.646-1.053,1.342-1.431c0.697-0.381,1.292-0.051,1.634,0.201
				c0.342,0.255,0.279,2.42,0.279,2.42l10.713,0.037v-1.507l1.926,0.025v-1.671l-1.241-0.063v-0.71l0.721-0.012l-0.552-16.725
				l-0.607-0.035l-0.017-0.287l0.473,0.067l-0.253-8.308c0,0,0.219-0.624-0.457-1.283c-0.675-0.659-1.215-0.085-1.215-0.085
				l-1.064-0.136l0.017-0.253h1.014l-0.017-0.422h-0.439l-0.051-0.271h0.271l-0.051-0.691h0.49l0.051-0.321h0.236l0.439,1.773
				l2.254-0.018l-0.076-1.892l-2.077-0.084l-0.034-0.271h1.874l0.017-0.387h-0.287l0.017-0.507l0.566-0.71l-2.271-0.066v-0.186h0.54
				l-0.033-1.909h-0.541l0.034-0.354h0.793l-0.051-0.878c0,0-0.658,0.472-1.165,0.692c-0.506,0.22-0.406-0.034-0.406-0.034
				l0.913-1.097l-0.017-0.56h0.726l0.575-0.978c0,0,0.337,0.405,0.152,0.978c-0.187,0.577-0.473,0.643-0.473,0.643l0.05,1.065
				l0.271,0.253l0.903-0.017v-2.397l4.365-0.053v-2.178h-9.727l-0.017-5.335h7.818l-0.016-0.456l1.401-0.069l0.034-0.438h0.506v0.236
				l1.452,0.051l0.305,0.339l1.165,0.05v0.32l7.279-0.032v5.387h-8.732v2.126l3.614,0.035l0.186,1.722l1.536-0.066l0.017-0.422
				l0.524,0.017l-0.051,0.472l0.776,0.018l-0.05,0.305l-2.651,0.016v1.283l2.01,1.47l0.979-0.828l0.118,0.204l-2.617,2.717
				l0.203,2.264l1.419,0.067l0.084,0.22l-1.536,0.085l1.283,9.32l1.249,0.051l-0.016,0.255l-1.25,0.066l0.54,5.083l1.165-0.018v0.288
				l-0.996,0.05l0.913,7.955h1.284v0.27l-1.116,0.085l0.473,4.981l1.132,0.016v-1.012l0.388-0.271l0.355,0.033l0.455,0.506v0.743
				l0.39-0.016v8.949l4.981-0.93h5.1v-0.337l-1.233-0.944l0.743-0.676l0.016-0.304l-2.397-0.018l-0.05-3.31l6.35-0.051v-0.304
				l0.303,0.016v0.339l1.183-0.018v-0.354l0.439,0.033v0.305l0.456,0.101v3.261l-4.324-0.018l-0.271,0.287l0.475,0.068l0.049,0.22
				l1.64,0.016l0.473,0.507l0.118,1.181l2.988-0.032l1.588,0.624v-6.669l-0.761-0.068l0.018-0.423l0.743,0.051v-3.612l-1.688-1.74
				l-1.014-0.017l0.017-0.305l2.685-0.016v-4.29l-0.795-0.017l0.034-0.32h0.761v-5.358l-0.372-0.214l-0.151-0.22l0.066-0.253
				l0.457-0.271c0,0,0.033-8.628,0-8.645c-0.034-0.017-0.474-0.592-0.474-0.592h0.489v-6.535l-0.505-0.456l-1.503-0.016l0.017-0.256
				l1.232-0.033l-0.119-0.219l-0.354-0.27v-0.203l0.643-0.861l-2.888-2.753l-0.506-0.018l0.084-0.27h0.422l-0.017-3.528l0.474-0.558
				h0.371l0.438,0.488l-0.033,3.598l2.245,0.102v-1.014l-0.303-0.084l0.032-0.658h0.491V28.496l-0.591,0.49l-0.271-0.169l0.861-0.861
				v-0.894l-7.6-7.55h-0.776l0.018-0.304h0.539l-0.016-1.874h-1.436l0.016-1.773h0.288v1.402l1.147,0.135l-0.033-4.611h-1.419
				l0.016-1.081h0.219l0.017,0.828l1.167-0.05l0.033-3.091h-0.304l0.017-2.566h0.912l0.016,2.533l-0.27,0.017v10.114l4.255,0.085
				l-0.017-7.767l-1.654-0.053l-0.017-1.164h0.288l-0.017,0.844h1.417l-0.017-4.29l-1.704-0.032l0.032-1.165h0.236l0.035,0.945h1.4
				l0.035-3.377h-1.689l-0.017-1.081h0.271l0.033,0.828l1.402,0.017l-0.035-1.943h0.558V19.26l3.546-0.034v-0.911l-0.624-0.084
				l-0.304-0.187l0.016-2.719l0.118-0.202l0.794,0.017V14.16h-1.131l0.033-1.892c0,0,0.304-0.743,1.402-1.03
				c1.097-0.287,1.453,0.996,1.453,0.996v1.857l-0.896,0.035l-0.018,0.658l1.655,0.05v-1.621l0.371,0.017l-0.085,1.943l-1.924,0.032
				l0.051,3.815l0.151,0.019l0.084,0.236l7.667,0.017v0.22l0.742-0.017v-0.475h0.339V19.8h-1.959l-6.891,3.614l0.051,16.044
				l1.656-0.019v-0.49l-0.424-0.051l-0.101-2.094l0.507-0.034l-0.018-0.235l0.727-0.017l0.033,0.252l0.289,0.018l-0.052,2.161
				l-0.489-0.017c0,0-0.052,0.473,0,0.473c0.049,0,4.322,0.017,4.322,0.017l0.473-1.638l-0.422-0.117l0.033-0.524l0.389,0.067
				l0.337-0.691V35.74l-4.591-0.15l-0.034,0.422c0,0-0.575-0.018-0.524-0.018s-0.018-8.68-0.018-8.68l0.542-0.032l-0.034,0.404
				l1.975,0.05l0.018-0.962l4.356-0.018v0.997l5.066-0.05v-0.44c0,0,0.574,0.085,0.523,0.085c-0.052,0,0.003,8.68,0.003,8.68
				l-0.543,0.017l0.017-0.371l-5.05-0.017l0.169,1.535l0.491,0.018v0.523h-0.474l0.319,1.74l1.673-0.052l0.018-0.456l-0.541-0.017
				l0.018-2.161l0.591-0.642l0.912-0.118l0.455,0.742l0.067,2.146l-0.354,0.085l-0.065,0.457h5.148V38.78l-0.253-0.354l-2.635,0.033
				l-0.033-1.233l0.776-0.438l4.847-0.033l0.726,0.845l0.084,0.827l-2.684,0.068l-0.541,0.471l-0.034,0.508l1.993-0.068l0.017,0.288
				l-1.722,0.117l0.017,1.57h0.473l0.033,0.305l-2.532-0.033l-0.034-0.914l-5.335,2.179l-2.179,2.889l0.033,0.861l1.654,0.018
				l0.102-1.369l1.182-0.017l0.035,0.287l-0.946,0.288c0,0-0.084,0.826-0.034,0.811c0.05-0.018,1.553,0,1.553,0l-0.066,0.438
				l-1.739-0.034l-1.469,0.998l0.692,4.997h2.988l-0.017,0.219l-2.922,0.085l0.489,3.395l4.374-0.15l-0.033-0.475l11.972,0.017v-1.435
				l-0.235,0.017l0.017,0.305l-0.287-0.085l-0.033-0.203l-0.457-0.017l-0.049,0.252l-0.204-0.049l0.018-2.735l0.726,0.1l0.389-0.472
				l0.117-0.71l-0.404-0.472l-0.86-0.084l0.016-2.89l0.321-0.05l-0.018,0.489l0.439,0.052l0.018-0.558l0.253-0.034l-0.016,0.558
				l0.251,0.104v-0.695h0.271v0.573l0.422,0.034v-0.708l0.271,0.066v0.59l0.234,0.018v-0.607l0.288,0.034v3.006l-0.812,0.102
				l-0.337,0.405l0.018,0.725l0.471,0.523l0.66,0.018v2.651l-0.354,0.016v-0.252l-0.168,0.017l-0.052,0.271l-0.187-0.018l-0.016-0.254
				l-0.271,0.018l0.034,1.384l6.568,0.052v-1.959l4.322,0.016v-2.447v-0.846l0.305-0.117l0.203-0.305v-0.658l-0.371-0.271l0.371-0.033
				l0.285-0.068v-0.32l-0.606-0.625l0.219-0.334l0.388,0.604l0.762,0.067v0.287l-0.507,0.017l-0.22,0.59l0.151,0.153l0.575-0.371
				l0.202,0.202l-0.946,0.928l0.018,0.373l0.321,0.727l3.208-0.018v-5.32l0.355-0.016v7.768l4.779-0.052v-0.491l-0.289-0.539
				l0.289-0.201l0.319,0.74l12.935-13.017l0.458,0.438l-12.97,13.036l0.271,0.103l0.034,1.588l0.438,0.084l0.422-0.54l0.035-0.677
				l-0.423-0.337l-0.034-0.524l0.49-0.016l0.084,0.337l0.777,0.068l0.169,0.438l-0.507,0.203l-0.017,0.389l0.236-0.016v0.235
				l-0.507,0.085l0.018,0.354l0.709,0.017v0.304l-1.891,0.018l-0.524,1.991l-0.221,17.884l0.474,0.034v0.489l-0.49,0.034l-0.017,7.937
				l0.811,0.052l0.372,0.404l0.017,1.453l0.507,0.016l-0.017-1.385l0.32-0.506l1.536,0.018l0.389,0.456l0.018,1.435l0.659,0.017
				l-0.019-1.503l0.559-0.354l0.252-11.956l0.457-0.355v-1.891l0.473-0.034l0.018,2.194l0.218,0.069l0.271,13.559l13.339,0.051
				l1.166-20.398h-2.6l-0.05,0.406l-0.423-0.035l-0.152-0.793l-0.473-17.478l0.388-0.034l0.204,11.313l0.236-0.033l0.454-11.467
				l0.322-0.017l-0.591,17.782l2.684-0.034v-0.371l-1.62-0.103V64.77l1.62-0.051c0,0-0.05-0.761,0-0.795
				c0.052-0.033,0.727-0.658,0.727-0.658v-2.144l0.642-0.71l0.271,0.32l-0.439,0.54l1.064,0.103l0.659-0.979l0.168,2.263l-0.675-0.558
				l-0.896-0.034v1.318l0.507,0.321l0.067,1.181l1.486,0.086v0.489l-1.317-0.052l1.25,12.008l0.979,0.017l-0.102-2.771h-0.963
				l0.068-0.506l0.996-0.018l-0.136-0.658l1.267-0.1v-0.39l-0.558-0.117l0.118-0.221l0.677-0.018v-0.371l-1.942-0.168v-0.305
				l2.178-0.033v-0.963c0,0-0.017,0.234-1.03-0.896c-1.014-1.132-0.642-1.436-0.642-1.436l0.727-1.84l-0.507-0.507l0.438-0.608
				l0.912,0.845l1.587-2.026c0,0,1.521,0.354,2.146,1.368c0.625,1.013,1.184,1.841,1.184,1.841L258,69.059l0.405,0.438l-1.738,1.283
				l0.101,0.997h1.503v1.08l-1.3,0.019l-0.051,0.572c0,0,1.147,0.068,1.199,0.085c0.049,0.018,0,0.692,0,0.692l0.828-0.034v0.455
				l-0.98,0.137l0.017,1.063l1.436,0.389v1.133l0.405,0.05l-0.102,0.438l-0.945,0.151l-0.134-0.624l0.403-0.033l0.018-0.389
				c0,0-1.131-0.068-1.064-0.033c0.067,0.033,0.034,4.777,0.034,4.777l4.594,0.069v-2.229l-1.74-0.051l0.034-0.489l1.959-0.017
				l-0.084-0.626c0,0-1.099-0.573-1.621-1.706c-0.524-1.131,0.016-1.131,0.016-1.131l0.744-1.283l-0.659-0.776l0.439-0.355
				l1.047,0.861l1.739-2.194c0,0,1.368,0.54,2.027,1.351c0.657,0.811,1.131,1.824,1.131,1.824l-1.402,1.638l0.44,0.472l-1.556,1.234
				l-0.05,0.438c0,0,0.643-0.001,0.675,0.067c0.035,0.067,0.018,0.404,0.018,0.404l-0.727-0.017l0.423,1.029l1.452,0.019l-0.033-1.148
				l-0.491-0.068l0.035-0.371l1.064-0.018l-0.202,1.622c0,0-0.306,2.363-0.34,2.313c-0.033-0.05,1.452-0.17,1.452-0.17v0.423
				l-1.502,0.186l0.084,2.651c0,0,4.307,0.117,4.357-0.017c0.051-0.135,0-0.912,0-0.912l-0.795,0.019l0.068-0.423h0.929l0.573-0.913
				v-0.658l-0.337-0.202v-0.457l0.337-0.202l-0.168-1.147l0.507-0.034v0.692l1.115-1.063v3.038l-0.424-0.605l-0.573-0.103l0.067,0.793
				l0.709,0.912l0.945-0.033c0,0,0.137,0.455,0,0.507c-0.135,0.05-1.012-0.017-1.029,0.05c-0.017,0.067,0.051,1.739,0.051,1.739
				l0.574-0.034l1.807,8.393l1.941,0.153v-1.05h1.824v0.999l2.532,0.018v-2.349c0,0-0.185-0.118-0.201-0.169
				c-0.018-0.051-0.034-2.701-0.034-2.701l-0.438,0.034l-0.067,0.573l-1.689-0.136l-0.018-1.958l-2.212-0.102l-0.034-0.861
				l0.338-0.202l-0.05-0.389l-0.405-0.017l0.068-0.423l1.772-0.522l0.118,0.438l-1.183,0.456v0.338l1.841-0.018l1.908-0.304
				c0,0-0.083-0.658,0.37-0.944c0.457-0.289,0.593-0.289,0.593-0.289l1.267,0.085l0.658,0.422l1.688,0.068l0.979,1.148l0.236,1.469
				l3.514,0.034v-0.507l0.506-0.524l0.455,0.034l0.457,0.507v0.523l3.986,0.304l-0.086,0.406l-3.834,0.287l-0.033,0.642l-0.523,0.539
				h-0.355l-0.642-1.198l-3.242,0.068l-0.049,0.725l-0.525-0.017l0.052,2.111l-0.438,0.102l0.05,1.047h0.405l0.286-0.439l0.271,0.018
				l-0.018,1.216l1.571,0.086l0.236-1.302l0.49-0.018l0.065,0.997l4.713-0.084c0,0,0.355-0.744,1.199-1.031
				c0.843-0.287,1.063,0.896,1.063,0.896l15.064-0.811l0.438-0.962l0.305-0.018v-0.406l-0.439-0.034l0.033-0.488l0.491-0.305
				l1.553-0.033l0.607,0.338v0.271l-0.624,0.287l0.017,0.354l1.352,0.052v0.288l3.781-0.052l1.773-1.469l6.839-0.541l0.068-2.061
				l-0.422-0.017l0.05-0.305l0.372,0.034v-1.233l-0.372-0.033l0.101-0.236l0.355-0.051l0.506-1.014v-0.488l-1.182-0.069v0.576
				l-0.27-0.034v-0.524l-1.352-0.018l-0.067,0.525l-0.371,0.017l0.084-1.47h0.405l-0.066,0.676l1.385-0.051l-0.052-0.643h0.338v0.659
				l1.147-0.017v-0.405l0.576-0.018v0.406l1.165,0.017v-0.709l0.337,0.05v0.71l1.368-0.067l-0.067-0.626l0.303,0.018v1.42l-0.371-0.07
				l0.068-0.404l-1.352-0.018l-0.051,0.525l-0.355-0.068v-0.457h-1.097l0.018,0.457l0.471,1.183l0.39,0.051l-0.085,0.271l-0.319,0.05
				l0.066,1.114l0.439,0.051l-0.034,0.321l-0.439,0.017v1.807l20.315-1.976c0,0-2.786,9.896-2.988,11.282
				c-0.203,1.384-0.641,7.122-0.641,7.122L4.257,107l-2.43-12.901"/>
		</g>
		<g id="Layer_3">
			<rect x="137.103" y="32.149" fill="#FFFFFF" width="1.735" height="1.419"/>
			<rect x="139.32" y="32.149" fill="#FFFFFF" width="1.671" height="1.419"/>
			<rect x="141.257" y="32.149" fill="#FFFFFF" width="1.469" height="1.419"/>
			<rect x="142.942" y="32.149" fill="#FFFFFF" width="1.697" height="1.419"/>
			<rect x="137.103" y="33.847" fill="#FFFFFF" width="1.735" height="0.685"/>
			<rect x="139.32" y="33.847" fill="#FFFFFF" width="1.671" height="0.685"/>
			<rect x="141.257" y="33.847" fill="#FFFFFF" width="1.469" height="0.685"/>
			<rect x="142.942" y="33.847" fill="#FFFFFF" width="1.697" height="0.685"/>
			<rect x="137.103" y="34.835" fill="#FFFFFF" width="1.735" height="0.465"/>
			<rect x="139.32" y="34.835" fill="#FFFFFF" width="1.671" height="0.465"/>
			<rect x="141.257" y="34.835" fill="#FFFFFF" width="1.469" height="0.465"/>
			<rect x="142.942" y="34.835" fill="#FFFFFF" width="1.697" height="0.465"/>
			<rect x="137.103" y="35.545" fill="#FFFFFF" width="1.735" height="1.461"/>
			<rect x="139.32" y="35.545" fill="#FFFFFF" width="1.671" height="1.461"/>
			<rect x="141.257" y="35.545" fill="#FFFFFF" width="1.469" height="1.461"/>
			<rect x="142.942" y="35.545" fill="#FFFFFF" width="1.697" height="1.461"/>
			<rect x="149.519" y="32.149" fill="#FFFFFF" width="1.689" height="1.47"/>
			<rect x="151.461" y="32.149" fill="#FFFFFF" width="1.461" height="1.47"/>
			<rect x="155.091" y="32.149" fill="#FFFFFF" width="1.469" height="1.47"/>
			<rect x="153.167" y="32.149" fill="#FFFFFF" width="1.46" height="1.47"/>
			<rect x="149.519" y="33.847" fill="#FFFFFF" width="1.689" height="0.744"/>
			<rect x="151.461" y="33.847" fill="#FFFFFF" width="1.461" height="0.744"/>
			<rect x="153.167" y="33.847" fill="#FFFFFF" width="1.46" height="0.744"/>
			<rect x="155.091" y="33.847" fill="#FFFFFF" width="1.469" height="0.744"/>
			<rect x="149.519" y="34.835" fill="#FFFFFF" width="1.689" height="0.465"/>
			<rect x="151.461" y="34.835" fill="#FFFFFF" width="1.461" height="0.465"/>
			<rect x="153.167" y="34.835" fill="#FFFFFF" width="1.46" height="0.465"/>
			<rect x="155.091" y="34.835" fill="#FFFFFF" width="1.469" height="0.465"/>
			<rect x="155.091" y="35.545" fill="#FFFFFF" width="1.469" height="1.461"/>
			<rect x="153.167" y="35.545" fill="#FFFFFF" width="1.46" height="1.461"/>
			<rect x="151.461" y="35.545" fill="#FFFFFF" width="1.461" height="1.461"/>
			<rect x="149.519" y="35.545" fill="#FFFFFF" width="1.689" height="1.461"/>
			<polygon fill="#FFFFFF" points="145.146,32.149 146.116,32.149 146.116,33.374 	"/>
			<polygon fill="#FFFFFF" points="148.059,32.149 149.038,32.149 148.059,33.374 	"/>
			<polygon fill="#FFFFFF" points="146.362,32.149 147.814,32.149 147.814,33.568 146.362,33.619 	"/>
			<polygon fill="#FFFFFF" points="149.257,33.619 148.059,33.619 149.257,32.396 	"/>
			<polygon fill="#FFFFFF" points="144.884,33.619 144.884,32.396 146.116,33.619 	"/>
			<polygon fill="#FFFFFF" points="146.362,33.847 147.814,33.847 147.087,34.591 	"/>
			<polygon fill="#FFFFFF" points="146.362,35.545 147.814,35.578 147.814,37.006 146.362,37.006 	"/>
			<polygon fill="#FFFFFF" points="147.585,35.3 146.581,35.3 147.045,34.692 	"/>
			<polygon fill="#FFFFFF" points="146.362,34.093 146.362,35.248 146.876,34.671 	"/>
			<polygon fill="#FFFFFF" points="147.814,34.143 147.814,35.139 147.265,34.692 	"/>
			<rect x="148.059" y="33.847" fill="#FFFFFF" width="1.199" height="0.744"/>
			<rect x="148.059" y="34.835" fill="#FFFFFF" width="1.199" height="0.465"/>
			<polygon fill="#FFFFFF" points="144.917,33.847 146.116,33.882 146.116,34.591 144.884,34.591 	"/>
			<rect x="144.884" y="34.835" fill="#FFFFFF" width="1.199" height="0.465"/>
			<polygon fill="#FFFFFF" points="146.116,37.006 144.917,37.006 146.116,35.806 	"/>
			<polygon fill="#FFFFFF" points="144.884,36.786 144.917,35.545 146.032,35.545 	"/>
			<polygon fill="#FFFFFF" points="149.257,37.006 148.059,37.006 148.059,35.806 	"/>
			<polygon fill="#FFFFFF" points="148.117,35.545 149.257,35.545 149.257,36.634 	"/>
		</g>
		<g id="Layer_4">
			<polygon fill="#FFFFFF" points="177.771,22.245 177.669,26.789 174.31,23.513 176.656,21.065 	"/>
			<path fill="#FFFFFF" d="M175.509,19.779c0,0,1.029,0.931,1.013,0.981c-0.018,0.049-2.381,2.398-2.381,2.398l-3.529-3.53
				l3.901-0.117l0.084,0.726l0.438,0.05l0.034-0.574L175.509,19.779z"/>
			<polygon fill="#FFFFFF" points="176.74,20.642 177.603,19.696 175.762,19.696 	"/>
			<polygon fill="#FFFFFF" points="177.72,20.035 177.72,21.551 176.909,20.834 	"/>
			<polygon fill="#FFFFFF" points="186.402,19.645 182.521,21.551 181.723,19.645 	"/>
			<polygon fill="#FFFFFF" points="181.343,19.645 182.166,21.701 179.696,22.937 179.696,19.645 	"/>
			<polygon fill="#FFFFFF" points="178.209,19.745 178.454,19.745 178.454,22.183 178.209,22.208 	"/>
			<rect x="178.2" y="22.665" fill="#FFFFFF" width="0.245" height="4.124"/>
			<rect x="177.948" y="15.395" fill="#FFFFFF" width="0.747" height="2.659"/>
			<polygon fill="#FFFFFF" points="152.136,43.254 153.809,44.469 152.305,46.005 	"/>
			<rect x="141.515" y="42.138" fill="#FFFFFF" width="0.675" height="1.943"/>
			<polygon fill="#FFFFFF" points="141.21,48.927 141.515,58.164 142.19,58.231 142.19,48.927 	"/>
			<polygon fill="#FFFFFF" points="141.7,58.418 142.19,58.418 142.19,71.1 	"/>
			<polygon fill="#FFFFFF" points="101.096,56.519 103.046,56.519 101.678,59.507 	"/>
			<polygon fill="#FFFFFF" points="98.918,56.519 100.64,56.519 99.906,57.835 	"/>
			<polygon fill="#FFFFFF" points="100.108,58.014 100.817,56.694 101.552,59.888 	"/>
			<polygon fill="#FFFFFF" points="98.715,56.694 99.602,58.014 98.412,59.888 	"/>
			<polygon fill="#FFFFFF" points="101.375,60.04 101.375,60.42 98.412,60.42 98.513,60.229 99.893,58.014 	"/>
			<polygon fill="#FFFFFF" points="98.689,60.647 101.375,60.647 100.032,62.016 	"/>
			<polygon fill="#FFFFFF" points="100.285,62.142 101.552,60.849 102.286,63.838 	"/>
			<polygon fill="#FFFFFF" points="100.032,62.344 102.071,64.168 97.88,64.168 	"/>
			<polygon fill="#FFFFFF" points="99.778,62.167 97.88,63.838 98.259,60.647 	"/>
			<polygon fill="#FFFFFF" points="104.364,78.022 99.602,78.022 102.49,73.945 103.705,73.945 	"/>
			<polygon fill="#FFFFFF" points="99.007,78.022 95.473,78.022 96.257,73.945 97.24,73.945 	"/>
			<polygon fill="#FFFFFF" points="97.727,73.945 102.071,73.945 99.45,77.745 	"/>
			<polygon fill="#FFFFFF" points="103.274,71.515 96.739,71.515 96.866,70.652 101.552,67.688 103.274,70.957 	"/>
			<polygon fill="#FFFFFF" points="102.667,67.131 103.274,70.12 101.805,67.688 	"/>
			<polygon fill="#FFFFFF" points="98.829,66.574 97.525,69.602 96.967,69.791 97.474,66.574 	"/>
			<polygon fill="#FFFFFF" points="98.006,69.233 101.286,67.36 100.829,66.346 99.196,66.346 	"/>
			<polygon fill="#FFFFFF" points="101.286,66.346 102.54,66.346 102.414,66.776 101.552,67.309 	"/>
			<polygon fill="#FFFFFF" points="100.285,64.725 102.071,64.725 102.286,65.46 100.829,65.46 	"/>
			<polygon fill="#FFFFFF" points="99.893,64.725 99.374,65.46 97.727,65.359 97.727,64.725 	"/>
			<polygon fill="#FFFFFF" points="87.24,66.346 96.967,65.917 96.967,66.346 87.24,66.955 	"/>
			<polygon fill="#FFFFFF" points="95.776,73.945 95.017,78.022 86.937,78.022 86.658,76.175 96.232,70.626 96.232,71.515 
				95.32,71.515 95.32,73.945 	"/>
			<polygon fill="#FFFFFF" points="96.967,66.727 96.435,70.12 87.24,75.188 86.456,75.188 86.126,67.309 	"/>
			<polygon fill="#FFFFFF" points="100.829,65.637 102.286,65.637 102.414,65.917 100.829,66.019 	"/>
			<polygon fill="#FFFFFF" points="97.727,65.917 99.222,65.827 99.222,66.169 97.575,66.169 	"/>
			<polygon fill="#FFFFFF" points="99.602,65.737 100.64,65.737 100.64,66.169 99.399,66.169 	"/>
			<polygon fill="#FFFFFF" points="100.108,64.928 100.514,65.46 99.646,65.46 	"/>
			<rect x="99.007" y="52.566" fill="#FFFFFF" width="0.595" height="0.457"/>
			<path fill="#FFFFFF" d="M97.955,71.779c0,0,1.989-0.013,1.944,0c-0.044,0.014,0,0.729,0,0.729h-1.944V71.779z"/>
			<rect x="97.955" y="72.749" fill="#FFFFFF" width="1.945" height="0.987"/>
			<rect x="100.153" y="71.774" fill="#FFFFFF" width="1.703" height="0.733"/>
			<polygon fill="#FFFFFF" points="100.153,72.749 101.856,72.749 101.856,73.736 100.153,73.712 	"/>
			<polygon fill="#FFFFFF" points="102.104,71.774 103.553,71.806 103.553,72.254 103.154,72.508 102.104,72.508 	"/>
			<polygon fill="#FFFFFF" points="103.052,72.787 102.312,73.736 102.104,73.736 102.104,72.749 	"/>
			<polygon fill="#FFFFFF" points="103.553,72.749 103.724,73.736 102.616,73.736 103.344,72.749 	"/>
			<polygon fill="#FFFFFF" points="96.512,71.774 97.727,71.774 97.727,72.508 96.739,72.508 96.512,71.932 	"/>
			<path fill="#FFFFFF" d="M97.48,73.736c0.025-0.007-0.513-0.987-0.513-0.987h0.76v0.987H97.48z"/>
			<polygon fill="#FFFFFF" points="96.454,72.793 96.303,73.736 97.119,73.736 96.771,72.793 	"/>
			<polygon fill="#FFFFFF" points="96.024,71.774 96.024,72.318 95.872,72.508 95.524,72.508 95.524,71.774 	"/>
			<polygon fill="#FFFFFF" points="95.922,72.749 95.774,73.736 95.524,73.712 95.524,72.749 	"/>
			<polygon fill="#FFFFFF" points="103.845,71.774 104.022,72.508 104.521,72.508 104.521,71.774 	"/>
			<polygon fill="#FFFFFF" points="104.11,72.749 104.281,73.736 104.521,73.736 104.521,72.749 	"/>
			<path fill="#FFFFFF" d="M176.25,73.516c0.077,0,1.217,0,1.217,0v1.392L176.25,73.516z"/>
			<rect x="190.841" y="66.955" fill="#FFFFFF" width="1.471" height="2.431"/>
			<polygon fill="#FFFFFF" points="190.386,61.027 192.312,61.027 192.312,63.255 190.841,63.384 	"/>
			<polygon fill="#FFFFFF" points="193.982,57.228 193.982,60.09 190.132,60.09 189.625,57.228 	"/>
			<polygon fill="#FFFFFF" points="188.193,46.98 189.396,46.98 188.193,47.816 	"/>
			<polygon fill="#FFFFFF" points="189.639,43.118 188.118,45.297 187.662,45.297 187.662,43.588 	"/>
			<polygon fill="#FFFFFF" points="197.427,39.863 197.427,41.37 195.946,41.37 195.946,40.356 197.06,39.863 	"/>
			<polygon fill="#FFFFFF" points="195.691,40.244 190.563,42.371 191.171,41.37 192.298,41.37 192.312,39.966 195.691,39.966 	"/>
			<polygon fill="#FFFFFF" points="189.156,39.966 191.854,39.966 191.083,41.168 188.523,41.168 	"/>
			<polygon fill="#FFFFFF" points="190.904,41.434 190.094,42.599 187.662,43.385 187.662,42.763 188.41,41.434 	"/>
			<polygon fill="#FFFFFF" points="192.032,40.293 192.032,41.168 191.246,41.168 	"/>
			<polygon fill="#FFFFFF" points="174.566,41.37 177.707,41.37 177.707,43.815 176.922,43.815 174.566,41.662 	"/>
			<polygon fill="#FFFFFF" points="178.454,27.768 178.209,39.369 177.948,39.369 177.948,27.768 	"/>
			<polygon fill="#FFFFFF" points="187.201,39.966 187.954,39.966 188.14,40.171 188.14,40.616 187.733,41.168 187.201,41.168 	"/>
			<rect x="199.86" y="37.731" fill="#FFFFFF" width="0.438" height="0.474"/>
			<rect x="199.116" y="37.731" fill="#FFFFFF" width="0.472" height="0.474"/>
			<rect x="198.381" y="37.731" fill="#FFFFFF" width="0.508" height="0.474"/>
			<rect x="197.654" y="37.731" fill="#FFFFFF" width="0.49" height="0.474"/>
			<rect x="196.93" y="37.731" fill="#FFFFFF" width="0.497" height="0.474"/>
			<rect x="196.193" y="37.731" fill="#FFFFFF" width="0.493" height="0.474"/>
			<rect x="195.486" y="37.731" fill="#FFFFFF" width="0.46" height="0.474"/>
			<rect x="194.497" y="37.731" fill="#FFFFFF" width="0.726" height="0.474"/>
			<rect x="195.486" y="37.006" fill="#FFFFFF" width="0.46" height="0.263"/>
			<rect x="196.193" y="37.006" fill="#FFFFFF" width="0.493" height="0.263"/>
			<rect x="196.93" y="37.006" fill="#FFFFFF" width="0.497" height="0.263"/>
			<rect x="197.654" y="37.006" fill="#FFFFFF" width="0.49" height="0.263"/>
			<rect x="198.381" y="37.006" fill="#FFFFFF" width="0.508" height="0.263"/>
			<rect x="199.116" y="37.006" fill="#FFFFFF" width="0.472" height="0.263"/>
			<rect x="206.901" y="52.82" fill="#FFFFFF" width="0.236" height="1.695"/>
			<rect x="206.402" y="52.82" fill="#FFFFFF" width="0.263" height="1.695"/>
			<rect x="205.687" y="52.82" fill="#FFFFFF" width="0.228" height="1.695"/>
			<rect x="204.968" y="52.82" fill="#FFFFFF" width="0.463" height="1.695"/>
			<rect x="206.901" y="48.429" fill="#FFFFFF" width="0.236" height="1.942"/>
			<rect x="206.167" y="48.429" fill="#FFFFFF" width="0.498" height="1.942"/>
			<rect x="205.687" y="48.429" fill="#FFFFFF" width="0.228" height="1.942"/>
			<rect x="204.968" y="48.429" fill="#FFFFFF" width="0.463" height="1.942"/>
			<polygon fill="#FFFFFF" points="262.588,74.845 262.817,74.845 263.425,75.705 263.489,76.211 263.185,77.353 262.843,77.353 
				262.134,76.378 262.07,75.616 262.312,74.959 	"/>
			<polygon fill="#FFFFFF" points="265.147,77.163 264.73,77.605 264.224,77.353 264.388,76.948 264.687,76.884 	"/>
			<polygon fill="#FFFFFF" points="272.557,83.762 272.798,84.129 272.798,84.42 272.063,84.42 272.063,84.002 272.291,83.762 	"/>
		</g>
  </symbol>
  
</svg>